<svg xmlns="http://www.w3.org/2000/svg" width="156.389" height="155.592" viewBox="0 0 156.389 155.592">
  <g id="Groupe_1284" data-name="Groupe 1284" transform="translate(0 0)">
    <path id="Tracé_796" data-name="Tracé 796" d="M-1147.147-1516.936a99.41,99.41,0,0,1-19.424-4.589c-12.918-4.444-25.893-11-34.258-21.675-6.112-7.8-9.42-17.24-12.011-26.649-1.935-7.026-3.533-14.2-3.611-21.459-.18-16.633,7.531-32.309,15.077-47.314,3.222-6.406,6.542-12.946,11.832-17.956,9.034-8.557,22.326-11.352,34.916-13.25,8.239-1.242,16.575-2.267,24.9-1.809,20.11,1.1,39.45,11.367,51.008,27.065,9.944,13.507,14,30.091,16.836,46.36,1.225,7.021,2.267,14.146,1.614,21.236a56.3,56.3,0,0,1-5.544,19.007c-7.788,16.284-22.185,29.184-39.445,36.15A82.961,82.961,0,0,1-1147.147-1516.936Z" transform="translate(1216.455 1671.748)" fill="#ff867d"/>
  </g>
</svg>
