<svg xmlns="http://www.w3.org/2000/svg" width="156.492" height="166.965" viewBox="0 0 156.492 166.965">
  <g id="Groupe_1273" data-name="Groupe 1273" transform="translate(0)">
    <path id="Tracé_797" data-name="Tracé 797" d="M1786.887-484.849c-4.56,4.56-8.679,9.337-12.263,12.962-14.128,14.289-32.82,25.43-40.582,44.856a46.53,46.53,0,0,0,8.542,47.437c5.634,6.214,12.844,10.731,19.48,15.862a125.491,125.491,0,0,1,17.835,16.816c4.009,4.6,7.87,9.643,13.356,12.313,8.58,4.174,18.958,1.47,27.413-2.953,16.166-8.456,28.589-22.506,40.219-36.563q8.543-10.327,16.8-20.888c3.845-4.918,7.743-10.079,9.153-16.161,2.075-8.95-1.625-18.27-6.609-25.987-6.216-9.626-14.432-17.767-22.578-25.825l-30.271-29.94c-2-1.977-4.07-4-6.683-5.056C1808.04-503.078,1796.484-494.445,1786.887-484.849Z" transform="translate(-1730.937 499.492)" fill="#ffba4d"/>
  </g>
</svg>
