<svg xmlns="http://www.w3.org/2000/svg" width="182.781" height="143.924" viewBox="0 0 182.781 143.924">
  <g id="Groupe_1276" data-name="Groupe 1276" transform="translate(0 0)">
    <path id="Tracé_791" data-name="Tracé 791" d="M1739.082,871.312a91.99,91.99,0,0,0-35.581,4.081c-15.511,4.881-19.663,25.714-25.395,38.695-8.538,19.338-21.733,36.095-27.562,56.789-3.2,11.353-3.39,25.454,5.807,32.838,5.254,4.218,12.363,5.167,19.092,5.515,13.036.676,26.106-.3,39.154.1,30.568.932,61.332,9.347,91.362,3.559,10.946-2.109,23.133-7.891,25.1-18.863,1.849-10.3-6.166-19.372-11.562-28.343-9.623-16-11.653-35.44-19.553-52.357C1787.932,887.6,1764.839,873.577,1739.082,871.312Z" transform="translate(-1648.552 -870.986)" fill="#e6baf4"/>
  </g>
</svg>
