<svg id="Groupe_1278" data-name="Groupe 1278" xmlns="http://www.w3.org/2000/svg" width="161.669" height="143.493" viewBox="0 0 161.669 143.493">
  <path id="Tracé_798" data-name="Tracé 798" d="M-1120-423.928c-14.255,5.37-30.365,20.008-36.8,25.182-21.856,17.569-41.426,37.874-59.217,59.511q-4.223,5.136-8.317,10.378c-4.573,5.851-9.25,12.556-8.6,19.954.6,6.859,5.858,12.613,12.012,15.7s13.146,3.972,19.988,4.745c21.595,2.44,43.267,4.222,64.979,5.185,11.16.495,22.367.921,33.54.814,8.77-.084,17.011.475,23.631-6.495,3.905-4.111,6.043-9.656,6.9-15.261,2.424-15.847-3.541-30.26-8.088-45.091q-8.721-28.45-14.707-57.644c-.875-4.268-1.744-8.648-4.014-12.367C-1103.413-427.032-1111.368-427.181-1120-423.928Z" transform="translate(1233.004 425.935)" fill="#3b3bd9"/>
</svg>
