<svg id="Groupe_1272" data-name="Groupe 1272" xmlns="http://www.w3.org/2000/svg" width="169.634" height="151.374" viewBox="0 0 169.634 151.374">
  <path id="Tracé_794" data-name="Tracé 794" d="M1704.133-1607.844c-4.79,9.972-10.477,19.572-13.026,30.441-2.532,10.8-1.709,22.708,4.023,32.206,5.489,9.1,14.9,15.193,24.7,19.276s20.237,6.448,30.254,9.988c24.34,8.6,65.876,18.685,81.406-11.713,2.564-5.018,3.307-10.729,4.408-16.255,4.559-22.883,18.99-42.236,23.045-65.2,2.647-14.987-7.134-29.695-19.341-38.783-6-4.464-12.892-8.094-20.34-8.726-7.914-.671-15.731,2.075-23.671,2.262-6.447.152-12.8-1.383-19.146-2.5-9.062-1.6-18.375-2.365-27.463-.917s-17.981,5.248-24.454,11.79c-8.87,8.965-13.1,21.439-17.96,32.788C1705.8-1611.388,1704.982-1609.61,1704.133-1607.844Z" transform="translate(-1689.749 1658.532)" fill="#9ce8a5"/>
</svg>
