<svg xmlns="http://www.w3.org/2000/svg" width="233.009" height="216.038" viewBox="0 0 233.009 216.038">
  <g id="Groupe_1274" data-name="Groupe 1274" transform="matrix(0.899, 0.438, -0.438, 0.899, 65.528, 0)">
    <path id="Tracé_5806" data-name="Tracé 5806" d="M254.918-423.057a92.437,92.437,0,0,0-20.541,11.67A94.249,94.249,0,0,0,214.025-392.1c-10.422,13.854-15.275,33.222-7.709,48.82,6.36,13.113,19.908,21.091,28.746,32.679,4.5,5.9,7.754,12.713,12.622,18.313,11.075,12.744,30.044,17.464,46.231,12.665,8.11-2.4,15.419-6.878,23.037-10.556A125.847,125.847,0,0,1,358.514-302c5.323-.555,10.882-.827,15.568-3.413,5.354-2.954,8.746-8.492,11.3-14.049,2.372-5.159,4.267-10.834,3.362-16.44-1.047-6.482-5.617-11.752-10-16.642l-34.36-38.338c-6.786-7.572-13.631-15.2-21.779-21.281a76.908,76.908,0,0,0-43.97-15.1A60.64,60.64,0,0,0,254.918-423.057Z" transform="translate(-202.636 427.269)" fill="#ff9a9a"/>
  </g>
</svg>
