<svg id="Groupe_1275" data-name="Groupe 1275" xmlns="http://www.w3.org/2000/svg" width="147.807" height="141.73" viewBox="0 0 147.807 141.73">
  <path id="Tracé_792" data-name="Tracé 792" d="M347.811,882.1c-6.658,3.136-12.362,7.741-18.463,12.6q-9.468,7.547-18.157,16.007c-3.863,3.763-7.752,7.916-9.036,13.154-.968,3.949-.342,8.1.376,12.1A280.879,280.879,0,0,0,313.2,977.176c2.673,7.828,6.027,15.984,12.746,20.808,7.834,5.624,18.238,5.389,27.811,6.558a85.642,85.642,0,0,1,24.014,6.588c9.252,4.064,18.727,9.93,28.67,8.123,5.932-1.078,11.016-4.791,15.651-8.648,8.323-6.927,16.067-14.8,21.261-24.3s7.658-20.814,5.1-31.336c-1.425-5.862-4.319-11.245-6.486-16.875-3.263-8.474-4.966-17.7-10.035-25.235-3.615-5.372-8.725-9.539-13.857-13.487-8.729-6.713-17.86-13.1-28.078-17.2a58.122,58.122,0,0,0-31.637-3.464A41.906,41.906,0,0,0,347.811,882.1Z" transform="translate(-301.661 -877.861)" fill="#a2e6ff"/>
</svg>
