<svg id="Groupe_1242" data-name="Groupe 1242" xmlns="http://www.w3.org/2000/svg" width="22.09" height="14.726" viewBox="0 0 22.09 14.726">
  <g id="Groupe_1239" data-name="Groupe 1239" transform="translate(4.602)">
    <path id="Tracé_749" data-name="Tracé 749" d="M14.991,12.736a4.6,4.6,0,1,0-5.982,0,6.43,6.43,0,0,0-3.452,5.707.92.92,0,0,0,1.841,0,4.6,4.6,0,1,1,9.2,0,.921.921,0,0,0,1.841,0A6.43,6.43,0,0,0,14.991,12.736Zm-5.752-3.5A2.761,2.761,0,1,1,12,12,2.769,2.769,0,0,1,9.239,9.239Z" transform="translate(-5.557 -4.637)" fill="#46474e"/>
  </g>
  <g id="Groupe_1240" data-name="Groupe 1240">
    <path id="Tracé_750" data-name="Tracé 750" d="M7.4,11.08a.923.923,0,0,1-.92.92A3.693,3.693,0,0,0,2.8,15.682a.921.921,0,0,1-1.841,0A5.5,5.5,0,0,1,3.809,10.85,3.584,3.584,0,0,1,2.8,8.318,3.693,3.693,0,0,1,6.478,4.637a.921.921,0,0,1,0,1.841,1.841,1.841,0,1,0,0,3.681A.923.923,0,0,1,7.4,11.08Z" transform="translate(-0.955 -4.637)" fill="#46474e"/>
  </g>
  <g id="Groupe_1241" data-name="Groupe 1241" transform="translate(15.647)">
    <path id="Tracé_751" data-name="Tracé 751" d="M23.045,15.682a.92.92,0,0,1-1.841,0A3.693,3.693,0,0,0,17.522,12a.92.92,0,0,1,0-1.841,1.841,1.841,0,1,0,0-3.681.921.921,0,0,1,0-1.841A3.693,3.693,0,0,1,21.2,8.318a3.584,3.584,0,0,1-1.013,2.532A5.5,5.5,0,0,1,23.045,15.682Z" transform="translate(-16.602 -4.637)" fill="#46474e"/>
  </g>
</svg>
