<svg xmlns="http://www.w3.org/2000/svg" width="78" height="78" viewBox="0 0 78 78">
  <g id="Composant_169_73" data-name="Composant 169 – 73" transform="translate(1 1)">
    <g id="Ellipse_60" data-name="Ellipse 60" fill="#e4e7f2" stroke="#0014a8" stroke-width="1">
      <circle cx="38" cy="38" r="38" stroke="none"/>
      <circle cx="38" cy="38" r="38.5" fill="none"/>
    </g>
    <g id="Intersection_1" data-name="Intersection 1" transform="translate(17 14)" fill="#fff">
      <path d="M 20.99947738647461 62.5 C 14.02714157104492 62.5 7.217066764831543 60.59756851196289 1.292055606842041 56.99661254882812 C 0.7664398550987244 55.1639404296875 0.4999980926513672 53.25982284545898 0.4999980926513672 51.33411026000977 C 0.4999980926513672 48.56568145751953 1.0418781042099 45.88053131103516 2.110588073730469 43.35324859619141 C 3.142948150634766 40.91189956665039 4.62103796005249 38.71934127807617 6.503787994384766 36.83649063110352 C 8.386528015136719 34.95362854003906 10.57895851135254 33.47546005249023 13.02015781402588 32.44303131103516 C 15.54727840423584 31.37426948547363 18.23226737976074 30.83235931396484 21.00052833557129 30.83235931396484 C 23.76755714416504 30.83235931396484 26.45173835754395 31.37426948547363 28.9784984588623 32.44301986694336 C 31.41948890686035 33.47549819946289 33.61188888549805 34.95367813110352 35.49478912353516 36.83649826049805 C 37.37785720825195 38.71947860717773 38.85623931884766 40.91204833984375 39.88885879516602 43.35329055786133 C 40.95792770385742 45.88069915771484 41.5 48.56584167480469 41.5 51.33411026000977 C 41.5 53.25914001464844 41.23361968994141 55.16266250610352 40.70793151855469 56.99550247192383 C 34.78192901611328 60.59717559814453 27.97146797180176 62.5 20.99947738647461 62.5 Z M 21.00052833557129 25.16706085205078 C 17.70684814453125 25.16706085205078 14.60995769500732 23.88401031494141 12.28034782409668 21.55426025390625 C 9.950728416442871 19.22450065612793 8.66774845123291 16.12742042541504 8.66774845123291 12.83353042602539 C 8.66774845123291 9.537710189819336 9.950708389282227 6.439949989318848 12.28029823303223 4.110879898071289 C 14.6093282699585 1.78236997127533 17.70623779296875 0.5 21.00052833557129 0.5 C 24.29473876953125 0.5 27.39144897460938 1.782359957695007 29.72020721435547 4.110859870910645 C 32.04947662353516 6.43986988067627 33.33225631713867 9.537639617919922 33.33225631713867 12.83353042602539 C 33.33225631713867 16.12750053405762 32.04945755004883 19.22459030151367 29.72015762329102 21.55427932739258 C 27.39082717895508 23.88401985168457 24.29412841796875 25.16706085205078 21.00052833557129 25.16706085205078 Z" stroke="none"/>
      <path d="M 20.99947738647461 62 C 27.81412124633789 62 34.47187805175781 60.15818786621094 40.28018951416016 56.66976547241211 C 40.75796890258789 54.93972778320312 41 53.1467170715332 41 51.33411026000977 C 41 48.63312149047852 40.47122955322266 46.01351928710938 39.42835998535156 43.54808044433594 C 38.42094802856445 41.16643142700195 36.97854995727539 39.02729034423828 35.1412467956543 37.19007110595703 C 33.30409622192383 35.35300064086914 31.16511726379395 33.91080093383789 28.78371810913086 32.90351867675781 C 26.31891822814941 31.8609790802002 23.70027732849121 31.33235931396484 21.00052833557129 31.33235931396484 C 18.29953765869141 31.33235931396484 15.68007850646973 31.8609790802002 13.21491813659668 32.90354156494141 C 10.83331775665283 33.91075897216797 8.694328308105469 35.35293960571289 6.857347965240479 37.19002914428711 C 5.020368099212646 39.02711868286133 3.578268051147461 41.16624069213867 2.57109808921814 43.54798126220703 C 1.528598070144653 46.01330947875977 0.9999980926513672 48.63293838500977 0.9999980926513672 51.33411026000977 C 0.9999980926513672 53.14749145507812 1.242010712623596 54.94085693359375 1.719782114028931 56.67085647583008 C 7.527126312255859 60.15858459472656 14.1845006942749 62 20.99947738647461 62 M 21.00052833557129 24.66706085205078 C 24.16055870056152 24.66706085205078 27.13167762756348 23.4360408782959 29.3665771484375 21.20075988769531 C 31.6014575958252 18.96549987792969 32.83225631713867 15.9939603805542 32.83225631713867 12.83353042602539 C 32.83225631713867 9.671199798583984 31.60148811340332 6.698999881744385 29.36667823791504 4.46442985534668 C 27.13235855102539 2.23036003112793 24.16119766235352 1 21.00052833557129 1 C 17.83976745605469 1 14.868408203125 2.230370044708252 12.63380813598633 4.464469909667969 C 10.39868831634521 6.699100017547607 9.16774845123291 9.671290397644043 9.16774845123291 12.83353042602539 C 9.16774845123291 19.35856056213379 14.47590827941895 24.66706085205078 21.00052833557129 24.66706085205078 M 20.99947738647461 63 C 13.61892795562744 63 6.724108219146729 60.92348861694336 0.8662880659103394 57.32236862182617 C 0.3025080859661102 55.42436981201172 -1.9073486328125e-06 53.41484832763672 -1.9073486328125e-06 51.33411026000977 C -1.9073486328125e-06 39.73332977294922 9.400418281555176 30.33235931396484 21.00052833557129 30.33235931396484 C 32.59538650512695 30.33235931396484 42 39.73332977294922 42 51.33411026000977 C 42 53.41413879394531 41.69728851318359 55.423828125 41.13369750976562 57.32125854492188 C 35.27603912353516 60.92237854003906 28.37964820861816 63 20.99947738647461 63 Z M 21.00052833557129 25.66706085205078 C 13.9142484664917 25.66706085205078 8.16774845123291 19.92021942138672 8.16774845123291 12.83353042602539 C 8.16774845123291 5.741590023040771 13.9142484664917 -3.552713678800501e-15 21.00052833557129 -3.552713678800501e-15 C 28.0867977142334 -3.552713678800501e-15 33.83225631713867 5.741590023040771 33.83225631713867 12.83353042602539 C 33.83225631713867 19.92021942138672 28.0867977142334 25.66706085205078 21.00052833557129 25.66706085205078 Z" stroke="none" fill="#0014a8"/>
    </g>
  </g>
</svg>
