<svg id="Groupe_1243" data-name="Groupe 1243" xmlns="http://www.w3.org/2000/svg" width="20.154" height="20.154" viewBox="0 0 20.154 20.154">
  <path id="Tracé_752" data-name="Tracé 752" d="M17.5,1.923H6.5A4.586,4.586,0,0,0,1.923,6.5v7.329A4.587,4.587,0,0,0,5.587,18.32v2.841a.917.917,0,0,0,.484.808.916.916,0,0,0,.94-.046l5.266-3.51H17.5a4.586,4.586,0,0,0,4.58-4.581V6.5A4.586,4.586,0,0,0,17.5,1.923Zm2.748,11.909A2.752,2.752,0,0,1,17.5,16.581H12c-.028,0-.051.013-.078.015a.921.921,0,0,0-.185.038.824.824,0,0,0-.168.069.729.729,0,0,0-.077.031L7.419,19.449V17.5a.915.915,0,0,0-.916-.916,2.752,2.752,0,0,1-2.748-2.749V6.5A2.751,2.751,0,0,1,6.5,3.755H17.5A2.751,2.751,0,0,1,20.245,6.5Z" transform="translate(-1.923 -1.923)" fill="#46474e"/>
  <path id="Tracé_753" data-name="Tracé 753" d="M12,4.671A2.751,2.751,0,0,0,9.252,7.419a.916.916,0,1,0,1.832,0,.916.916,0,1,1,1.457.74,3.352,3.352,0,0,0-1.457,2.684v.241a.916.916,0,1,0,1.832,0v-.241a1.569,1.569,0,0,1,.709-1.206A2.749,2.749,0,0,0,12,4.671Z" transform="translate(-1.923 -1.923)" fill="#46474e"/>
  <circle id="Ellipse_35" data-name="Ellipse 35" cx="0.916" cy="0.916" r="0.916" transform="translate(9.161 10.993)" fill="#46474e"/>
</svg>
