<svg id="Groupe_2925" data-name="Groupe 2925" xmlns="http://www.w3.org/2000/svg" width="17.758" height="20.018" viewBox="0 0 17.758 20.018">
  <g id="Groupe_1237" data-name="Groupe 1237">
    <path id="Tracé_745" data-name="Tracé 745" d="M8.4,4.63a2.639,2.639,0,0,0-5.279,0A2.591,2.591,0,0,0,4.979,7.122V9.508a2.6,2.6,0,0,0,0,4.984v2.386A2.627,2.627,0,1,0,8.4,19.412,2.592,2.592,0,0,0,6.541,16.92V14.513A2.6,2.6,0,0,0,6.52,9.529V7.122A2.65,2.65,0,0,0,8.4,4.63Zm-3.738,0a1.1,1.1,0,1,1,1.1,1.1A1.1,1.1,0,0,1,4.662,4.63Zm2.2,14.782a1.1,1.1,0,1,1-1.1-1.1A1.1,1.1,0,0,1,6.858,19.412Zm0-7.391a1.1,1.1,0,1,1-1.1-1.1A1.09,1.09,0,0,1,6.858,12.021Z" transform="translate(-3.121 -1.991)" fill="#0013b1"/>
    <path id="Tracé_746" data-name="Tracé 746" d="M10.913,5.391h9.206a.761.761,0,0,0,0-1.521H10.913a.761.761,0,1,0,0,1.521Z" transform="translate(-3.121 -1.991)" fill="#0013b1"/>
    <path id="Tracé_747" data-name="Tracé 747" d="M20.119,11.261H10.913a.76.76,0,1,0,0,1.52h9.206a.76.76,0,1,0,0-1.52Z" transform="translate(-3.121 -1.991)" fill="#0013b1"/>
    <path id="Tracé_748" data-name="Tracé 748" d="M20.119,18.652H10.913a.76.76,0,1,0,0,1.52h9.206a.76.76,0,0,0,0-1.52Z" transform="translate(-3.121 -1.991)" fill="#0013b1"/>
  </g>
</svg>
