<svg id="Groupe_2926" data-name="Groupe 2926" xmlns="http://www.w3.org/2000/svg" width="22.399" height="16.698" viewBox="0 0 22.399 16.698">
  <g id="Groupe_1235" data-name="Groupe 1235">
    <path id="Tracé_742" data-name="Tracé 742" d="M-126.246,12.853a.685.685,0,0,0-.684.684.684.684,0,0,0,.684.683,1.157,1.157,0,0,1,1.155,1.155.684.684,0,0,0,.683.684.685.685,0,0,0,.684-.684A2.5,2.5,0,0,0-126.246,12.853Z" transform="translate(131.2 -3.651)" fill="#0013b1"/>
    <path id="Tracé_743" data-name="Tracé 743" d="M-113.754,12.853a.684.684,0,0,0-.683.684.683.683,0,0,0,.683.683,1.157,1.157,0,0,1,1.155,1.155.685.685,0,0,0,.684.684.684.684,0,0,0,.683-.684A2.525,2.525,0,0,0-113.754,12.853Z" transform="translate(131.2 -3.651)" fill="#0013b1"/>
    <path id="Tracé_744" data-name="Tracé 744" d="M-108.875,14.55a64.781,64.781,0,0,0-2.875-8.556,3.672,3.672,0,0,0-4.031-2.286A3.64,3.64,0,0,0-118.8,7.1,2.52,2.52,0,0,0-120,6.8a2.593,2.593,0,0,0-1.2.307,3.64,3.64,0,0,0-3.017-3.394,3.646,3.646,0,0,0-4.031,2.286,69.871,69.871,0,0,0-2.875,8.556,4.96,4.96,0,0,0,4.054,5.728,4.96,4.96,0,0,0,5.7-3.913,2.722,2.722,0,0,0,1.367.4,2.5,2.5,0,0,0,1.367-.4,4.99,4.99,0,0,0,5.7,3.913A4.96,4.96,0,0,0-108.875,14.55Zm-17.371,4.29a3.47,3.47,0,0,1-3.465-3.465,3.47,3.47,0,0,1,3.465-3.465,3.471,3.471,0,0,1,3.465,3.465A3.441,3.441,0,0,1-126.246,18.84ZM-120,15.305a1.208,1.208,0,0,1-1.2-1.2,1.207,1.207,0,0,1,1.2-1.2,1.207,1.207,0,0,1,1.2,1.2A1.208,1.208,0,0,1-120,15.305Zm6.246,3.535a3.47,3.47,0,0,1-3.465-3.465,3.471,3.471,0,0,1,3.465-3.465,3.47,3.47,0,0,1,3.465,3.465A3.455,3.455,0,0,1-113.754,18.84Z" transform="translate(131.2 -3.651)" fill="#0013b1"/>
  </g>
</svg>
