<svg xmlns="http://www.w3.org/2000/svg" width="300" height="300" viewBox="0 0 300 300"><defs><style>.cls-1{fill:#a2e6ff;}.cls-2{fill:#ff867d;}.cls-3{fill:#ffe44a;}.cls-4{fill:#2d1548;}.cls-5{fill:#a1d7ca;}.cls-6,.cls-7,.cls-8{fill:none;}.cls-7{stroke:#ff9561;stroke-width:0.67541px;}.cls-8{stroke:#add9e6;stroke-miterlimit:10;stroke-width:1.34351px;}.cls-9{isolation:isolate;}.cls-10{fill:#707070;}</style></defs><g id="Calque_1" data-name="Calque 1"><path class="cls-1" d="M173.93965,157.88683c-7.738-8.65362-19.769-11.74474-31.00929-11.72678-12.95041.02063-25.53133,4.03409-37.15675,9.48955a176.7718,176.7718,0,0,0-16.28625,8.74427,120.66806,120.66806,0,0,0-12.76959,8.78743c-7.84827,6.24466-14.90892,13.90715-18.75062,23.294a37.62121,37.62121,0,0,0-2.89757,14.24232,38.94641,38.94641,0,0,0,2.60259,13.76172,40.54033,40.54033,0,0,0,17.88138,20.975,35.55855,35.55855,0,0,0,6.29752,2.73009.499.499,0,0,0,.298-.95194c-.40268-.12994-.79862-.27574-1.19494-.42044q18.55826-9.07671,37.11657-18.15347c11.79975-5.77114,23.73127-11.40052,34.83959-18.45036,9.301-5.90271,18.97011-12.91225,24.38311-22.77952a24.45807,24.45807,0,0,0-3.35377-29.54182Z"/><path class="cls-2" d="M230.16266,130.309a35.46146,35.46146,0,0,0-13.74081-9.80694c-5.70772-2.32274-11.81825-3.41644-17.86893-4.42157-13.38269-2.22313-27.78079-4.69124-40.94654-.06319-10.76337,3.78359-19.2049,12.28555-24.16589,22.43027-5.50547,11.258-6.52005,24.14574-4.86008,36.43583,1.53836,11.38966,5.03724,23.2909,12.39986,32.33818a33.21735,33.21735,0,0,0,13.32111,9.96726c5.719,2.30142,11.94358,3.01488,18.05586,3.317,6.91742.342,13.8625.36172,20.78637.27238,3.63284-.04688,7.26654-.133,10.89655-.28447q1.54058-.06429,3.087-.197a.42536.42536,0,0,0,.44439.53658,15.57416,15.57416,0,0,0,6.74038-1.96637,13.93925,13.93925,0,0,0,5.501-3.53361.51271.51271,0,0,0-.05038-.74352q.98905-1.03038,1.88472-2.14462c3.83781-4.77458,6.60362-10.40115,9.24378-15.89678,5.34467-11.12538,9.55023-23.17041,9.65537-35.64236C240.63835,149.99634,237.311,138.695,230.16266,130.309Z"/><path class="cls-3" d="M189.34267,53.12162c-.95132-2.86452-2.27754-5.80571-4.6766-7.75171a6.91516,6.91516,0,0,0-8.33591-.3997c-3.02068,1.99887-4.7729,5.36031-6.27479,8.544-3.28336,6.96015-5.60466,14.334-9.19659,21.15433-3.22271,6.11939-7.105,11.86711-10.25422,18.02685-3.12841,6.119-5.86245,13.09836-5.34453,20.09683a15.05005,15.05005,0,0,0,3.7295,9.366c.19665.206.40819.39949.62.5924a.50128.50128,0,0,0,.19154.47081c2.51763,1.96707,5.20166,3.97858,8.32419,4.854a9.98779,9.98779,0,0,0,8.86622-1.71113c2.6562-1.99911,4.49442-4.94872,6.06942-7.82226,1.91831-3.49987,3.71763-7.06786,5.42278-10.67607a187.06619,187.06619,0,0,0,8.79664-21.71659c2.33019-7.1291,4.05232-14.62233,3.86812-22.16454A37.3684,37.3684,0,0,0,189.34267,53.12162Z"/><path class="cls-4" d="M39.09545,266.8584a.419.419,0,0,1-.25752-.79391c15.605-6.65173,38.57133-17.66277,58.83416-27.3772,18.872-9.04815,35.17045-16.86183,39.22489-18.0902,7.106-2.15313,12.35418-1.43728,19.61584-.448a131.78968,131.78968,0,0,0,27.84905,1.31994c3.36107-.18688,6.49422-.19641,9.52454-.20577a92.755,92.755,0,0,0,12.58452-.59437,19.48055,19.48055,0,0,1,2.35176-.13285c2.07124-.03449,4.2131-.07048,5.8057-1.76828.70793-.75477,1.38259-1.43679,2.02388-2.05578a14.91111,14.91111,0,0,0-3.369-2.38874,10.409,10.409,0,0,0-3.43959-1.13586,39.63419,39.63419,0,0,1-5.0723-1.30314c-4.5967-1.4715-6.90374-2.21029-8.6952-4.17266-.02715-.02691-.09894-.08725-.20144-.17541a15.24874,15.24874,0,0,1-3.99254-4.766,3.0485,3.0485,0,0,1-1.693-1.438c-1.09035-1.651-1.88969-4.335-1.30776-6.27193a7.18343,7.18343,0,0,1,3.61718-4.22263,3.5391,3.5391,0,0,1,2.84221-.26009,4.89956,4.89956,0,0,1,1.86593,1.24213,5.45424,5.45424,0,0,1,.97968-.53627c2.28126-.95789,4.03248-.14783,6.45472.978a31.4799,31.4799,0,0,0,8.389,2.798,35.026,35.026,0,0,0,8.88152.36535c2.83207-.16711,4.87858-.28744,6.35345,1.49151,2.344,2.82627.89482,7.621.16279,9.55118-1.12232,2.9609-2.716,4.11239-5.12773,5.85543a51.05358,51.05358,0,0,0-5.42188,4.37769,3.68083,3.68083,0,0,0,2.34847,1.15914c2.66172.21917,4.84379-2.06012,6.95278-4.26258,2.99631-3.12856,5.92955-9.34768,4.95533-11.87747-.01767-.0459-1.67277-4.71056-1.04332-5.70675q.16126-.25487.31752-.50606c-2.0527-.21951-4.989-.6292-9.31707-1.30307a129.31223,129.31223,0,0,1-13.20641-2.43774,26.83421,26.83421,0,0,0-4.107-.73882,33.5705,33.5705,0,0,1-8.89318-2.39015,16.15063,16.15063,0,0,1-3.26319-1.80857c-1.68565-1.22138-3.59429-2.604-4.25969-5.00986a7.21971,7.21971,0,0,1,2.01917-7.15667,7.77389,7.77389,0,0,1,7.02971-1.35689,2.21687,2.21687,0,0,1,1.5529,1.11287c.61942-.01536,1.25891-.02567,1.91587-.03662,1.81427-.02925,3.68992-.06,5.68932-.188a65.12069,65.12069,0,0,0,12.92274-2.11889c-4.42593.45261-8.151.50223-8.44614.5057-8.38725.08924-13.00733.13855-15.79326-.87069a28.903,28.903,0,0,1-5.86142-2.847c-1.1483.00449-3.1811-.41731-5.24234-2.92056-1.83715-2.231-3.14493-5.91086-1.92545-9.10309,2.07073-5.41887,10.43824-6.90774,15.24279-7.3129.23684-.01991.49293-.038.78055-.0578.78474-.05411,1.7615-.12207,3.21823-.29178a70.37389,70.37389,0,0,0,7.71432-1.34067c3.41357-.78871,5.99192-1.54023,8.06382-2.14451,4.38471-1.27815,6.58449-1.91972,9.64825-.85211,3.186,1.11009,6.69418,5.91461,6.86859,13.84073a13.29526,13.29526,0,0,0,2.0732,7.129,16.51943,16.51943,0,0,0,2.99061-2.92656c3.36922-4.47806.095-15.34661-3.54918-20.57035q-.40734-.58407-.75537-1.20268a18.76691,18.76691,0,0,1-4.87256.83885l-.68843.05849c-.27471.02482-1.03574.22253-2.18773.52383-2.88119.75094-8.24179,2.1501-16.69855,3.67079a135.26165,135.26165,0,0,1-19.01063,2.38662,9.51924,9.51924,0,0,1-4.24133,1.6469c-2.87367.43228-5.1132-.29048-5.99045-1.93287-2.33867-4.37646-2.90267-7.73834-1.72419-10.27678,1.75011-3.77027,7.1565-4.92624,11.49687-5.85605,8.57384-1.83,20.41193-8.53148,25.11325-11.32753a2.249,2.249,0,0,1,.3356-.18953c3.06245-1.12055,8.18418-1.33638,11.1312.2689,3.17693,1.731,4.097,5.96213,5.07163,10.44207a36.55157,36.55157,0,0,0,2.647,8.6819,6.40293,6.40293,0,0,0,1.8548-1.329c1.86556-1.92244,2.54789-4.95661,2.02914-9.01771-.78751-6.1726-5.34171-9.99074-6.71868-11.0139-5.11614-3.80105-11.22218-3.77539-13.60968-3.58795-3.66288.28763-13.66907.78906-16.43081.53829-1.20815-.10983-4.57948-.60986-8.84746-1.24314-4.13748-.61367-10.05723-1.49192-15.09574-2.14294-.04668.05266-.09476.10462-.14457.15658-3.56511,3.71407-7.35341,1.14618-9.173-.08792-.2565-.17391-.47817-.32413-.646-.42076-.16873-.09691-.68176-.3918-.52115-.85348.16316-.469.31616-.91252,9.39278.21881.24159.03023.48668.06109.73359.09259.94028-1.321.89153-2.96043.827-5.13873a28.13879,28.13879,0,0,1,.56283-7.56149,67.12524,67.12524,0,0,1,4.4302-13.05913,55.66553,55.66553,0,0,0,4.62527-15.3337c2.2684-14.36348-3.38078-29.45934-9.41439-30.67833-2.182-.44089-6.17727-.19876-7.47283,1.18552-.66761.71277-.73346,2.678-.8251,5.39771-.24788,7.37549-.70908,21.10435-13.31234,39.48159-1.14786,1.67321-2.23393,3.22413-3.28465,4.72413-7.63687,10.90412-13.1543,18.78243-23.81281,47.52878-3.6565,9.8615-8.83026,14.00155-55.37634,35.46585-13.74624,6.339-26.01842,10.93265-51.45918,17.04509a.42449.42449,0,0,1-.5053-.3097.419.419,0,0,1,.30953-.50508c25.37332-6.09611,37.60635-10.67493,51.30411-16.99107,46.25865-21.332,51.3842-25.40225,54.9417-34.99628,10.69579-28.84744,16.23952-36.76287,23.912-47.7182,1.04946-1.49821,2.13421-3.04758,3.27947-4.71749C168.91884,66.998,169.375,53.42809,169.62013,46.13783c.10093-3.0105.168-4.99946,1.05065-5.94224,1.70391-1.8201,6.28763-1.83041,8.25035-1.43409,7.09793,1.434,12.27718,17.69262,10.07615,31.63052a56.36969,56.36969,0,0,1-4.68363,15.535A66.44372,66.44372,0,0,0,179.931,98.8402a27.44385,27.44385,0,0,0-.54243,7.35053c.06231,2.08815.11353,3.817-.74243,5.28237,4.68853.6111,10.16232,1.42291,14.65536,2.08953,4.25488.63126,7.61537,1.12979,8.79991,1.23725,2.718.24695,12.6481-.25317,16.28959-.539,2.48192-.19483,8.83169-.21955,14.17513,3.75081,1.44424,1.073,6.22088,5.07955,7.05016,11.58051.55283,4.32654-.2074,7.59221-2.25887,9.70682a7.20167,7.20167,0,0,1-2.05977,1.48217q.30974.54031.66478,1.05139c3.87345,5.55311,7.17531,16.71045,3.5313,21.55332a17.41546,17.41546,0,0,1-3.16226,3.10238,5.03485,5.03485,0,0,0,2.34567,1.80919c4.37991,1.07918,7.1596,8.27778,6.71882,13.993-.36848,4.76967-3.14338,10.63222-8.51269,12.9779-.851.37283-1.60046.59518-4.54557.33022q-.26147.42454-.538.86224c-.189.44765.51255,3.38628,1.1174,4.95766,1.12537,2.92328-1.88677,9.36916-5.1316,12.75746-2.1413,2.2355-4.56652,4.76869-7.62732,4.519a4.531,4.531,0,0,1-2.88927-1.4158c-.63965.61694-1.31491,1.29995-2.02957,2.06211-1.83424,1.95644-4.26123,1.99742-6.40282,2.03253a18.70941,18.70941,0,0,0-2.2491.12482,93.41824,93.41824,0,0,1-12.69843.60283c-3.01948.009-6.14123.01882-9.48045.20408a132.55358,132.55358,0,0,1-28.00873-1.32611c-7.15679-.97516-12.32807-1.67968-19.25993.42-3.99294,1.20923-20.26467,9.0105-39.10549,18.04351-20.27074,9.71835-43.24577,20.73346-58.868,27.39253A.41839.41839,0,0,1,39.09545,266.8584Zm153.64066-64.27616a14.60848,14.60848,0,0,0,3.68405,4.31793c.14578.12483.24126.20995.2743.246,1.64163,1.79777,3.87751,2.51381,8.332,3.93988a38.4692,38.4692,0,0,0,4.97689,1.27887,11.19535,11.19535,0,0,1,3.66773,1.21535,15.7058,15.7058,0,0,1,3.59023,2.55329,52.40266,52.40266,0,0,1,5.548-4.4902c2.37075-1.71305,3.80167-2.747,4.83514-5.473.68-1.79315,2.0387-6.23175-.02393-8.71916-1.20476-1.45264-2.88132-1.35379-5.65967-1.19024a35.74934,35.74934,0,0,1-9.07811-.37686,32.19522,32.19522,0,0,1-8.59447-2.863c-2.39251-1.11124-3.83825-1.78106-5.77679-.96521-2.69009,1.13192-3.58145,4.4533-4.29731,7.122C193.78954,200.75924,193.43281,202.08951,192.73611,202.58224Zm40.08976-7.78706c2.394.18864,3.053-.002,3.72175-.29444,4.30512-1.88111,7.6-6.92851,8.01253-12.27458.45211-5.85972-2.5043-12.23319-6.08343-13.11541a5.92432,5.92432,0,0,1-2.80927-2.12089,26.62051,26.62051,0,0,1-2.56247,1.666c-.0287.01578-.72389.40157-1.49165.75655a19.23937,19.23937,0,0,1-2.44022.91086,8.131,8.131,0,0,1,3.20489,1.21619c5.27886,3.30467,6.02672,9.9868,6.056,10.26973l-.00175.10029C238.4048,182.10848,237.7395,186.59993,232.82587,194.79518Zm-39.32268-20.76461a5.91059,5.91059,0,0,0-2.57234,1.26442,6.35415,6.35415,0,0,0-1.76058,6.30054c.58691,2.12248,2.29266,3.35817,3.942,4.553a15.34238,15.34238,0,0,0,3.10257,1.71779,32.68618,32.68618,0,0,0,8.65083,2.32738,27.58,27.58,0,0,1,4.2279.76065,128.62284,128.62284,0,0,0,13.12752,2.42141c4.64061.7226,7.65382,1.13437,9.676,1.33612,4.72743-7.80116,5.60906-12.35063,5.6972-12.86832-.07876-.62125-.95925-6.65039-5.66123-9.59422-3.04855-1.90858-5.65937-1.18146-9.97951.02139a69.13182,69.13182,0,0,1-15.33061,2.75912c-2.01928.12921-3.99031.16129-5.72922.18964-.71813.01153-1.41491.02281-2.08379.04029a3.95136,3.95136,0,0,1-.89053.73829,5.13167,5.13167,0,0,0-2.132,2.33829c-.69622,1.76623.05266,3.572.65472,5.02312.48476,1.16865.86747,2.09211.23273,2.637-.62438.53533-2.93088-.17-4.57171-1.39536a5.656,5.656,0,0,1-1.91069-7.343c.98281-2.193,3.88451-2.664,7.73937-2.80847a2.93768,2.93768,0,0,0-.7678-.34394A7.47821,7.47821,0,0,0,193.50319,174.03057Zm1.26842,20.86067a12.51834,12.51834,0,0,0-2.51228,4.488,3.97361,3.97361,0,0,0,.13088,2.38157,9.33733,9.33733,0,0,0,1.01433-2.80008A24.17992,24.17992,0,0,1,194.77161,194.89124Zm-1.08118-3.59411a4.00381,4.00381,0,0,0-.82995.29622,6.397,6.397,0,0,0-3.17651,3.708c-.50243,1.67225.24574,4.117,1.20439,5.56907a4.40026,4.40026,0,0,0,.5579.69893,4.64628,4.64628,0,0,1,.00574-2.41544c.82491-2.95267,3.33407-5.97238,5.06987-6.83576l.01355-.00689a4.14038,4.14038,0,0,0-1.51017-.95774A2.22606,2.22606,0,0,0,193.69043,191.29713Zm.16178-15.579a3.80909,3.80909,0,0,0-2.89519,1.88252,4.69415,4.69415,0,0,0,.76243,5.542,7.11225,7.11225,0,0,0,4.42644,2.19855c.12968-.196-.234-1.07295-.47758-1.6606-.62529-1.50668-1.48075-3.57-.66077-5.65138a5.91313,5.91313,0,0,1,2.43618-2.72127A20.99149,20.99149,0,0,0,193.85221,175.71816Zm-3.18515-7.05557a28.87056,28.87056,0,0,0,4.8711,2.25939c2.64342.95713,7.2095.90848,15.49877.82031.56647-.00652,13.946-.18593,20.22475-3.09041.73852-.34157,1.43006-.72485,1.43671-.72886a26.45046,26.45046,0,0,0,2.46821-1.61032,13.98218,13.98218,0,0,1-2.24421-7.61446c-.16541-7.52644-3.385-12.05-6.30677-13.06794-2.81091-.97913-4.79484-.40135-9.13767.86546-2.08177.607-4.67308,1.36233-8.10981,2.15636a71.63388,71.63388,0,0,1-7.80594,1.35666c-1.47639.17168-2.46348.24033-3.25727.29528-.28307.01965-.53511.03716-.76731.05687-4.60984.3886-12.62429,1.786-14.5309,6.77677-1.09946,2.87756.10625,6.22778,1.78917,8.27127a7.27757,7.27757,0,0,0,3.04147,2.32789,9.89809,9.89809,0,0,1-2.35515-2.60413,9.78025,9.78025,0,0,1-1.35534-7.28071,4.85069,4.85069,0,0,1,2.28851-3.05762,1.66186,1.66186,0,0,1,1.76147-.11661c.80639.49585,1.15411,1.874,1.06287,4.21329a8.63289,8.63289,0,0,0,2.181,6.05648c.723.94861,1.34762,1.76786.77231,2.63784A2.87262,2.87262,0,0,1,190.66706,168.66259Zm-1.02638-.64771a2.39328,2.39328,0,0,0,1.85366-.89129c.22561-.3414-.024-.72866-.73994-1.668a9.47744,9.47744,0,0,1-2.35168-6.59744c.10477-2.69552-.42983-3.32213-.66482-3.46637-.21168-.13025-.51934-.08442-.91516.13527a4.03249,4.03249,0,0,0-1.88822,2.5481,8.9521,8.9521,0,0,0,1.27323,6.63752A11.13944,11.13944,0,0,0,189.64068,168.01488Zm38.63692-26.73113a4.87755,4.87755,0,0,1,.607-.11159l.69254-.059a18.57629,18.57629,0,0,0,4.54645-.74892,37.42464,37.42464,0,0,1-2.68829-8.82352c-.93241-4.28691-1.81333-8.33648-4.65388-9.8839-2.73181-1.48865-7.52212-1.27752-10.41183-.22893-.03778.02191-.11382.06725-.2254.13361-4.73756,2.81738-16.69145,9.56681-25.36624,11.42692-4.37949.93689-9.33777,1.99842-10.91255,5.38949-1.05987,2.28331-.5025,5.40032,1.7034,9.52935,1.04167,1.94927,4.18747,1.64006,5.12687,1.49883a10.13347,10.13347,0,0,0,2.74175-.80036c-6.04042-.04879-7.72675-1.49083-8.32154-3.20852-.05855-.16917-.16832-.40593-.2949-.67955-.59493-1.28651-1.59094-3.43939-.61946-5.51518.7868-1.6808,2.737-2.94895,5.79624-3.76887a2.85653,2.85653,0,0,1,2.83969.74037c2.75977,2.573,3.24655,10.51391,3.12844,11.12243a1.57405,1.57405,0,0,1-.15006.42353,141.81223,141.81223,0,0,0,18.10828-2.34368c8.42437-1.51365,13.76554-2.908,16.63505-3.65662C227.32035,141.521,227.8784,141.37534,228.2776,141.28375Zm-41.969-5.06432c-.03107.00713-.0625.01477-.09413.02328-2.80924.7533-4.57672,1.86828-5.25394,3.31491-.80654,1.72273.05272,3.57953.62087,4.808.13643.29448.25388.54835.32622.75759.495,1.42908,2.17061,2.78416,8.84256,2.63222a1.26977,1.26977,0,0,0,.39323-.61873c.08681-.75411-.488-8.29029-2.96506-10.42861A2.016,2.016,0,0,0,186.30859,136.21943ZM168.87,111.37814c.11318.07436.235.157.36527.24549,1.69962,1.15228,4.81509,3.26481,7.80352.49157A70.63971,70.63971,0,0,0,168.87,111.37814Zm-.51263-.33136Z"/><circle id="Ellipse_25" data-name="Ellipse 25" class="cls-5" cx="235.30113" cy="87.02397" r="5.81604"/><g id="Ellipse_26" data-name="Ellipse 26"><circle id="Ellipse_50" data-name="Ellipse 50" class="cls-6" cx="84.94398" cy="129.12666" r="5.81604"/><circle id="Ellipse_51" data-name="Ellipse 51" class="cls-7" cx="84.94398" cy="129.12666" r="5.40016"/></g><g id="Ellipse_26-2" data-name="Ellipse 26"><circle id="Ellipse_50-2" data-name="Ellipse 50" class="cls-8" cx="271.48893" cy="174.13395" r="5.81604"/><circle id="Ellipse_51-2" data-name="Ellipse 51" class="cls-8" cx="271.48893" cy="174.13395" r="5.40016"/></g><g id="_" data-name=" "><g id="_2" data-name=" 2" class="cls-9"><g class="cls-9"><path class="cls-10" d="M97.22861,78.084l-.58349-7.28125,2.26172.01465L98.3375,78.084Zm-.46679,1.08008h2.043v2.043h-2.043Z"/></g></g></g><g id="_5" data-name=" 5"><g id="Groupe_1260" data-name="Groupe 1260"><path id="Tracé_796" data-name="Tracé 796" class="cls-10" d="M258.74411,119.55128v1.479h-3.35828v3.3583h-1.45921v-3.3583h-3.35726v-1.479h3.35726v-3.35517h1.45921v3.35517Z"/></g></g><g id="_2-2" data-name=" 2-2"><g id="Groupe_1261" data-name="Groupe 1261"><path id="Tracé_797" data-name="Tracé 797" class="cls-4" d="M132.35388,73.14031v1.48006h-3.35724v3.35725h-1.45922V74.62037h-3.36456V73.14031h3.35725V69.782h1.45921v3.35517Z"/></g></g></g></svg>