<svg xmlns="http://www.w3.org/2000/svg" width="300" height="300" viewBox="0 0 300 300"><defs><style>.cls-1{fill:#e6baf4;}.cls-2{fill:#ffe44a;}.cls-3{fill:#9ce8a5;}.cls-4{fill:#ff867d;}.cls-5{fill:#a2e6ff;}.cls-6{fill:#a1d7ca;}.cls-7,.cls-8{fill:none;}.cls-8{stroke:#ff9561;stroke-width:0.50272px;}.cls-9{isolation:isolate;}.cls-10{fill:#707070;}.cls-11{fill:#2d1548;}</style></defs><g id="Calque_1" data-name="Calque 1"><path id="Tracé_791" data-name="Tracé 791" class="cls-1" d="M127.19874,191.75224c-5.70447-4.65481-14.75654-3.99383-19.43774-10.49506-2.74634-3.81385-2.16759-8.77821-2.187-13.2127a38.33292,38.33292,0,0,0-2.48877-13.28407c-1.443-4.05667,2.6998-8.395,3.9403-12.33526a22.22971,22.22971,0,0,0,.19395-13.51526c-2.7409-8.07611-11.82323-4.263-16.3609-.07758-6.51674,6.01247-10.83408,15.08471-15.4633,22.53785-5.03031,8.09938-10.01795,16.7907-11.84031,26.26636-1.63849,8.51288-1.11482,18.49358,5.12961,25.157a14.47183,14.47183,0,0,0,10.689,4.81851c4.75645-.07759,8.6983-3.758,13.37407-3.43215.14274.01087.27929.0093.41506.00853a37.36028,37.36028,0,0,0,24.76982,2.58729c3.69981-.91544,7.82708-2.29638,10.17233-5.48493C130.31515,198.27984,130.19257,194.19447,127.19874,191.75224Z"/><path id="Tracé_792" data-name="Tracé 792" class="cls-2" d="M216.74347,164.15c-.82235-14.98541-4.96514-34.36031-18.80934-42.79561a22.08166,22.08166,0,0,0-21.24225-1.29792c-5.3383,2.56015-13.13667,7.73088-14.33219,13.92333-1.64314,8.5028,1.24517,19.333,4.263,27.23068,2.59739,6.79759,6.13737,13.537,12.10253,17.74649-.97829,12.64559,7.87982,34.2129,23.7256,29.22217,7.44771-2.34679,9.88839-11.27551,11.637-17.95983A85.167,85.167,0,0,0,216.74347,164.15Z"/><path id="Tracé_793" data-name="Tracé 793" class="cls-3" d="M142.81721,169.67211c-.08378-4.827-.36074-9.64866-.74321-14.46019-.72072-9.0575-1.11328-18.67125-3.08692-27.555-1.55161-6.99387-6.85655-13.76352-14.71465-12.96289-8.042.82079-11.75419,8.75028-12.568,15.8706a129.88365,129.88365,0,0,0-.66641,15.83491,5.26623,5.26623,0,0,0-.65866,1.17844c-5.6362,14.09168-3.2157,33.36417,12.95591,39.1439,6.37632,2.27931,14.63475,1.31033,18.00716-5.28321C143.16787,177.87312,142.88393,173.54725,142.81721,169.67211Z"/><path id="Tracé_794" data-name="Tracé 794" class="cls-4" d="M267.77191,144.16139a15.54236,15.54236,0,0,0-6.3709-6.91783c-2.54075-1.54075-6.26383-2.21027-8.322-4.42208-2.52057-2.70522-1.78047-7.27548-2.81695-10.64945a13.20418,13.20418,0,0,0-4.95814-7.23048,11.0164,11.0164,0,0,0-9.31429-1.27309,36.36,36.36,0,0,0-9.71538,4.03417c-2.72849,1.86814-3.17691,4.57724-2.57567,7.65951.56091,2.87745,1.36464,5.74094,2.21725,8.5827-2.31422.31576-4.60517.87821-6.0435,2.31733-2.06907,2.06906-1.64005,4.99384-1.21413,7.59666a60.21064,60.21064,0,0,0,6.6432,19.01415c2.405,11.132,13.27088,22.08866,25.31523,18.90942,6.4353-1.699,11.54627-10.62229,14.51527-16.06688C268.63614,159.288,270.92709,151.18318,267.77191,144.16139Z"/><path id="Tracé_795" data-name="Tracé 795" class="cls-5" d="M60.15154,125.24344c-4.87515,2.84021-9.222,5.91627-10.32981,11.77436a65.74386,65.74386,0,0,0-.88442,13.35854,4.59664,4.59664,0,0,0-1.422,3.25837c-.19162,4.66878.01784,11.77436,5.675,13.01487,5.52837,1.21336,9.35928-5.05358,12.42215-8.62693,7.11256-8.29566,15.28332-18.32757,17.416-29.37422C85.805,114.26427,66.09419,121.78258,60.15154,125.24344Z"/><circle id="Ellipse_25" data-name="Ellipse 25" class="cls-6" cx="25.92544" cy="165.68604" r="4.32898"/><g id="Ellipse_26" data-name="Ellipse 26"><circle id="Ellipse_50" data-name="Ellipse 50" class="cls-7" cx="143.86455" cy="112.69172" r="4.32898"/><circle id="Ellipse_51" data-name="Ellipse 51" class="cls-8" cx="143.86455" cy="112.69172" r="4.01943"/></g><g id="_" data-name=" "><g id="_2" data-name=" 2" class="cls-9"><g class="cls-9"><path class="cls-10" d="M219.441,99.76666a2.94761,2.94761,0,0,1,1.19433.22851,1.90734,1.90734,0,0,1,.80957.62989,1.56442,1.56442,0,0,1,.28809.93359,1.77991,1.77991,0,0,1-.2666.98828,6.39888,6.39888,0,0,1-.79786.95606,7.09737,7.09737,0,0,0-.67382.77636,1.59381,1.59381,0,0,0-.28223.72266l-.04395.30371h-.80371v-.44531a2.20017,2.20017,0,0,1,.21778-1.02637,5.01675,5.01675,0,0,1,.62988-.90625,4.62461,4.62461,0,0,0,.47266-.64062,1.19667,1.19667,0,0,0,.15722-.6084.71364.71364,0,0,0-.26562-.5918,1.14613,1.14613,0,0,0-.7334-.21191,2.88246,2.88246,0,0,0-1.52051.46679v-1.15136A3.04816,3.04816,0,0,1,219.441,99.76666Zm-.92286,7.82031v-1.52051h1.53125V107.587Z"/></g></g></g><g id="_3" data-name=" 3"><g id="_4" data-name=" 4" class="cls-9"><g class="cls-9"><path class="cls-10" d="M41.57676,122.2901a2.94754,2.94754,0,0,1,1.19433.22851,1.90734,1.90734,0,0,1,.80957.62989,1.5644,1.5644,0,0,1,.28809.93359,1.77991,1.77991,0,0,1-.2666.98828,6.39883,6.39883,0,0,1-.79785.95605,7.09743,7.09743,0,0,0-.67383.77637,1.59381,1.59381,0,0,0-.28223.72266l-.04394.30371h-.80371v-.44531a2.20014,2.20014,0,0,1,.21777-1.02637,5.01641,5.01641,0,0,1,.62988-.90625,4.624,4.624,0,0,0,.47266-.64063,1.19663,1.19663,0,0,0,.15722-.60839.71362.71362,0,0,0-.26562-.5918,1.14611,1.14611,0,0,0-.7334-.21191,2.88248,2.88248,0,0,0-1.52051.46679v-1.15137A3.04824,3.04824,0,0,1,41.57676,122.2901Zm-.92285,7.82031V128.5899h1.53125v1.52051Z"/></g></g></g><g id="_5" data-name=" 5"><g id="Groupe_1260" data-name="Groupe 1260"><path id="Tracé_796" data-name="Tracé 796" class="cls-10" d="M280.48731,178.1718v1.10087h-2.49963v2.49963h-1.08612v-2.49963H274.4027V178.1718h2.49886v-2.49731h1.08612v2.49731Z"/></g></g><g id="_2-2" data-name=" 2-2"><g id="Groupe_1261" data-name="Groupe 1261"><path id="Tracé_797" data-name="Tracé 797" class="cls-11" d="M167.30078,107.6715v1.10164h-2.49886V111.272H163.7158v-2.49886h-2.5043V107.6715h2.49886v-2.49964h1.08612v2.49731Z"/></g></g><path id="Tracé_798" data-name="Tracé 798" class="cls-11" d="M308.74206,197.94547h-45.3263c-5.263,0-7.37013-.97053-8.163-1.55161-.25757-.18851-.43291-.114-.53609-.01707-.23273.22033-.10007.41118.16292.79055,1.91623,2.758,2.66644,4.66412,2.23121,5.66723-.495,1.1412-3.28241,1.25525-5.06289.83243-1.92554-.457-4.13426-1.84175-4.727-3.90772a3.26619,3.26619,0,0,1,.03646-1.88054,8.36,8.36,0,0,0,.25447-2.25759,7.5098,7.5098,0,0,0-1.23042-3.94806c-.06672-.1156-.1319-.23275-.19627-.34446a5.14824,5.14824,0,0,1,5.23124-.066,4.08923,4.08923,0,0,1,1.49031,2.34215c.25679.7696.49963,1.49652,1.23585,1.71685,1.87279.557,4.36777-3.13967,6.08307-5.969.512-.84485.97054-1.564,1.41351-2.25836,1.9395-3.038,3.33594-5.23357,6.12419-13.10563,2.1288-6.0117,2.54774-8.56254,1.55161-9.4136-.63927-.54306-1.74788-.26144-3.58577.20714a44.357,44.357,0,0,1-5.16685,1.0644c-.42746.05974-.57719-.01086-.62762-.0574-.142-.13189-.11558-.59893-.08845-1.05122a4.25142,4.25142,0,0,0-.78977-3.22967,3.79475,3.79475,0,0,0-2.27854-.79985c-.54928-.08224-1.38015-.20636-1.49419-.41272-.22731-.41118,1.63539-1.78978,2.33671-2.30879.48177-.3561.93561-.692,1.2312-.96588a1.53066,1.53066,0,0,0,.60591-1.29326,4.4649,4.4649,0,0,0,1.8208-.54306c.04422-.02172.07758-.04112.11172-.05508,3.01943-1.42593,4.955-1.70056,7.79681.59659.29869.24049,2.90306,2.42438,2.55162,4.88057a4.37155,4.37155,0,0,1-1.502,2.50507c-.24592.23275-.55081.52445-.28006.82313.19627.21877.50661.11714.67263.06206,1.308-.42747,5.21728-2.76961,5.56793-6.13582.23274-2.2219-1.22888-3.88522-3.879-6.90465-.10784-.12335-.34678-.42513-.67883-.84484-2.32741-2.94806-9.41747-11.91789-13.928-12.86747-3.457-.7277-7.57028-1.39644-9.62615-1.00854a5.36719,5.36719,0,0,1-.51047-1.60979c-.35376-2.16372.429-3.63541,1.25758-5.19323a9.66053,9.66053,0,0,0,1.53065-5.60052,10.58281,10.58281,0,0,0-3.37472-6.73473,11.61763,11.61763,0,0,0-8.952-2.56014,9.12862,9.12862,0,0,0-2.96746.94415,9.99332,9.99332,0,0,1-3.6742,1.06207,17.81059,17.81059,0,0,1-2.7378.06517c-1.076-.03879-1.78434-.06517-2.17224.57021a1.87905,1.87905,0,0,0-.10086,1.46472,7.58432,7.58432,0,0,0,3.48181,4.14046,6.1648,6.1648,0,0,0,2.19786.70676,9.41125,9.41125,0,0,1,2.77194.85338,11.0993,11.0993,0,0,1,3.00235,1.948,9.3777,9.3777,0,0,1,1.9938,2.69048c.43291.80684.7758,1.44377,1.60282,1.57644a3.29422,3.29422,0,0,0,2.52368-1.16914c.481-.415.97751-.84407,1.24827-.71606.31652.14818.37393.903.41195,1.40265.15517,2.059-.95578,4.40578-2.16293,4.56482a1.3825,1.3825,0,0,1-.95346-.31032,1.42514,1.42514,0,0,0-1.284-.29015c-.737.25756-.83553,1.03337-.93871,1.85494a3.86353,3.86353,0,0,1-.89994,2.405,5.83715,5.83715,0,0,1-2.01709,1.128,3.43446,3.43446,0,0,0-1.63539.98061,2.405,2.405,0,0,0-.94492.02095,10.33228,10.33228,0,0,1-3.45465.38325c-1.41585-.43523-1.35766-1.40654-1.29094-2.533.05043-.83632.1024-1.70133-.661-2.1257-.84484-.46548-4.26691.166-6.72155,1.803a32.83822,32.83822,0,0,0-10.41671,11.42913,10.13288,10.13288,0,0,0-.80139,5.308c.40729,2.66256,2.38636,4.89687,4.983,6.66182a4.44088,4.44088,0,0,0-1.70678.98915c-4.24752,4.052.57333,11.85737,3.16295,16.05058.29559.47712.56324.9108.789,1.29016a82.61151,82.61151,0,0,0,5.65871,7.42289,108.37585,108.37585,0,0,1,6.71457,8.81157c-3.04191,2.16371-10.62851,4.9116-23.42925,6.526a13.258,13.258,0,0,0,1.54462-2.6928c3.37318-8.80226,2.96123-20.54016,2.74014-26.84666-.05121-1.474-.09231-2.63075-.07758-3.41353a70.503,70.503,0,0,0-2.02872-15.46874c-.25913-1.128-.79753-3.47482-2.15905-3.6936-.886-.142-1.45773.6447-2.18157,1.64005a10.01473,10.01473,0,0,1-2.87822,2.91314,8.58281,8.58281,0,0,1-4.70679,1.13733,20.82215,20.82215,0,0,0,3.10864-2.26612c1.42205-1.20793,3.80143-3.232,4.46863-6.41434.47711-2.27465-.45073-4.26691-2.692-9.087l-.28627-.61521c-4.40965-9.4935-9.4547-15.23444-14.99317-17.06766a11.87985,11.87985,0,0,0-9.58659.89761c-1.96821,1.06983-2.89219,2.73082-3.87048,4.49189-2.29638,4.13038-2.76263,7.18627-2.3755,15.57192.27075,5.87283.74321,7.0086,1.76806,7.45934,1.22189.53919,2.53765-.35609,3.93254-1.301,1.53919-1.04345,3.12959-2.1226,4.81-1.63462.51048.149.63228.3173,1.08612.94881a25.97663,25.97663,0,0,0,2.79831,3.30725,24.36,24.36,0,0,0,7.60908,5.54466,7.26616,7.26616,0,0,0,1.25369.45462c.09155.02483.20249.05353.32894.08379a6.27548,6.27548,0,0,1-3.25837.15051,3.81071,3.81071,0,0,1-1.88442-1.11639,28.36473,28.36473,0,0,0-3.12572-2.405c-3.19088-2.15363-4.79291-3.23355-7.15522-3.47715a20.82311,20.82311,0,0,0-8.651,1.0194c-3.0621,2.56636-3.52525,6.284-3.6998,7.689a16.31791,16.31791,0,0,0-.10318,1.99148,23.59118,23.59118,0,0,0,.51746,5.142c.08456.44609.159.83166.20792,1.19319a20.81554,20.81554,0,0,1-.31031,6.91085c-.09543.63693-.20249,1.34447-.31575,2.1513-.02871.19939-.05431.39489-.07759.58807-.76493-.19008-1.51359-.31964-2.13112-.41584a23.29146,23.29146,0,0,0-6.67733-6.23668c-.43678-.28006-5.0272-2.23276-7.68045-.35919-2.61213,1.8433-3.007,5.92015-1.13034,11.516a40.76478,40.76478,0,0,0-3.66955,3.56869,14.51238,14.51238,0,0,0-2.87047,4.82938l-.04266-.02018c.25834-.377.26532-.88286-.13654-1.74322a36.60457,36.60457,0,0,1-2.79289-14.62776,13.48117,13.48117,0,0,1,1.25137-5.81852,20.54046,20.54046,0,0,0,1.70677-7.01326c.74089-8.14593-1.4011-13.45553-2.74324-15.89387a27.96314,27.96314,0,0,0-2.10785-3.22269c-.07759-.46548-.17378-.96354-.28317-1.50506a34.646,34.646,0,0,0-1.88055-6.47485,36.46844,36.46844,0,0,1-1.65013-5.26692c.495-3.13735.65866-9.01561-3.84487-13.05754a11.094,11.094,0,0,0-7.71614-3.11485,10.83334,10.83334,0,0,0-6.80456,2.66178c-2.48257,2.07294-3.36078,4.6424-4.28864,7.36314A38.0047,38.0047,0,0,0,110.07534,131.1c-.07215,1.03725-.10008,1.94959-.1249,2.75255-.07759,2.45542-.12025,3.93875-1.30723,5.40424a10.6768,10.6768,0,0,1-1.11793,1.13888c-.66175.60668-1.18464,1.08613-.98992,1.68815.166.51591.74632.505,1.41739.495a6.34453,6.34453,0,0,1,2.52834.35221,5.16839,5.16839,0,0,1,2.15906,1.57566c.53841.692.77037,1.44687,1.2599,7.18936l.02948.34911c.03259.38169.05043.59426.05818.71141a35.99715,35.99715,0,0,1-.62064,8.89458c-.31731,1.83632-.63694,3.29561-.8945,4.46785-.63539,2.8953-.92476,4.21726.07758,5.5082a3.04709,3.04709,0,0,0,.54771.55082c-1.59893,1.10241-2.91159,2.03725-3.33595,2.33827-.9395.67106-1.78435,1.28861-2.5361,1.83477-1.23042.89605-2.35146,1.71375-3.09546,2.18311a8.31966,8.31966,0,0,0,2.78823-5.17849c.46549-5.70525-1.2824-15.17005-3.60127-19.47731-2.038-3.78591-4.30261-4.46551-7.30109-4.34449-2.564.10939-4.28242,3.01632-4.60128,3.59817-1.62143,2.95892-.88907,5.84412.57021,11.5905q.20713.81693.43523,1.7184c2.7378,10.9171,4.246,16.9319,3.554,20.4556-.12956.66176-.30256,1.36774-.46548,2.04967-.58573,2.38947-1.13888,4.64628.02793,5.436.89838.60668,2.18389-.05663,3.03572-.495l.14818-.07759c2.87047-1.46161,4.89764-1.41118,7.7076-1.33981a41.1014,41.1014,0,0,0,10.44077-.85339c1.83943-.3817,3.19863-.768,4.3057-1.10319a82.36807,82.36807,0,0,0,12.11107,5.50821c.42979,4.10477-3.637,7.83561-3.68118,7.87517-1.62531,1.46705-7.509,3.41353-15.21427,4.12805-6.29486.58573-11.99468.73314-17.99862-3.41353-.931-.64237-2.17225-1.49187-3.63619-2.46239a4.3952,4.3952,0,0,0,.3786-1.35611c.51746-4.86894-6.93879-8.61762-13.28485-10.90468A65.78329,65.78329,0,0,0,67.8391,187.421c-2.29327-.32507-4.893-.69822-5.20719-1.00855-.90536-.9038-.14895-2.64626.99536-5.28321a40.98655,40.98655,0,0,0,3.70523-12.96212c.03181-.31032.05741-.61288.083-.91234a10.06469,10.06469,0,0,1,1.48877-5.29874c1.0163-1.50506,2.16449-2.15906,4.24907-3.346.71451-.4073,1.5229-.86812,2.46162-1.44067a27.17382,27.17382,0,0,0,3.68106-2.585,28.66555,28.66555,0,0,1,3.4399-2.45774c5.405-3.39958,8.6665-5.45157,12.35312-4.84256a10.21541,10.21541,0,0,1,3.05511,1.08612c.94725.47169,1.69358.84562,2.405.32972.90381-.65633.61521-1.9108.249-3.49887-.42825-1.85805-.96122-4.16917.15515-6.419a6.77217,6.77217,0,0,1,1.474-1.90847,7.64381,7.64381,0,0,0,2.10165-3.17071,15.64811,15.64811,0,0,0,.66409-2.66255,6.13938,6.13938,0,0,1,.24593-1.06906,9.13558,9.13558,0,0,1,1.08612,2.25449,17.19976,17.19976,0,0,1,.77581,2.668c.13808.63306.21567.98527.60279.97364a.48488.48488,0,0,0,.3879-.23275,7.99123,7.99123,0,0,0,.09232-5.57647,9.07674,9.07674,0,0,0-2.77039-4.0109c-3.57645-3.21958-7.06989-4.57724-10.3849-4.03418-3.55627.59194-6.73706,3.32354-9.43918,8.13352-.88674,1.57721-2.00623,3.77816-3.19165,6.10867-2.03881,4.007-5.45,10.71384-6.34452,10.914-.7921.14119-1.32662-.43523-2.27931-1.55161a12.26621,12.26621,0,0,0-4.48027-3.61369,11.14547,11.14547,0,0,0-1.585-.56711c.14973-.08844.30024-.18464.45384-.29015a10.53926,10.53926,0,0,0,3.06133-2.91236,9.502,9.502,0,0,0,.83476-1.54618,3.59666,3.59666,0,0,1,1.02716-1.49885,3.65539,3.65539,0,0,1,1.30956-.72072,2.58663,2.58663,0,0,0,1.41584-.97208,3.627,3.627,0,0,0,.58262-1.32585,2.33682,2.33682,0,0,1,.57409-1.15983,1.47793,1.47793,0,0,1,.69823-.42358,3.73231,3.73231,0,0,0,.865-.41273,5.021,5.021,0,0,0,1.848-2.42594,2.761,2.761,0,0,1,.32351-.62917c.29015.02094.9651,1.46161,1.1288,3.37784a9.2278,9.2278,0,0,1-.12335,2.42128c-.06672.405-.12491.75408.23274.85959a.50971.50971,0,0,0,.481-.159,7.29254,7.29254,0,0,0,1.60281-5.8961c-.69822-3.25837-4.07219-4.67266-7.33056-6.03807-.23274-.09853-.49651-.22421-.80218-.36929-2.42516-1.15517-6.93878-3.30337-11.1607,2.11329-.52056.66874-1.11793,1.38481-1.69435,2.07682a24.07476,24.07476,0,0,0-2.65868,3.53767c-1.83555,3.78979-1.031,4.88755-.38325,5.77119a1.52057,1.52057,0,0,1,.2149,1.88753c-.86037,1.99536-1.29249,2.99615-.88364,3.85574.53763,1.1319,1.90227,1.12725,3.62921,1.12259.57021,0,1.18853,0,1.84175.03258a13.58332,13.58332,0,0,1-1.62918.10939,5.3647,5.3647,0,0,0-3.27778.81459,4.42234,4.42234,0,0,0-.86424.83244q-.92553.32583-1.89374.7758c-.11327.05276-.211.097-.29015.13266-2.72539,1.20716-4.05978,4.931-6.72,12.3663-.56712,1.58652-.95735,2.855-1.301,3.97444-.81381,2.65169-1.26145,4.11176-2.92943,5.99075-.52056.58573-1.11095,1.15517-1.62918,1.65634-1.28163,1.23275-2.20794,2.12492-1.83167,2.89219.34678.70986,1.51514.609,2.45308.5291.14973-.01241.29015-.02483.41118-.03181,5.62379-.30489,12.79144,9.09163,14.45321,18.97769.16136.95579.39255,6.23125-.713,7.37013-1.1637,1.20172-3.16527.865-5.1521-.09309a6.38312,6.38312,0,0,0,3.40034-1.60979c3.45776-4.18468-.53142-13.22822-4.74015-18.14758-2.88211-3.36931-6.79293-4.68585-8.11335-4.0784-2.57489,1.18233-.04732,13.37795.211,14.23754a13.91468,13.91468,0,0,0,5.758,8.24524c.44453.34679.90769.67961,1.384.99069a36.65118,36.65118,0,0,1-4.72309.29868H-1.65667a.36.36,0,0,0-.3592.36075.36.36,0,0,0,.3592.35919H47.24994a36.8269,36.8269,0,0,0,5.69129-.4329c2.52368,1.41894,5.19787,2.02252,6.80534.37162,1.564-1.61057.91622-7.93026.90691-7.99077a32.0894,32.0894,0,0,0-5.83171-13.53156c-3.01477-4.00314-6.43063-6.21418-9.36782-6.04583-.128.00776-.27463.02017-.43367.03336-.44066.038-1.61367.13809-1.744-.12878-.14507-.29636.95579-1.35611,1.68427-2.05666.53143-.51125,1.13267-1.08612,1.67186-1.69746,1.77193-1.99536,2.26379-3.59972,3.07993-6.25685.34136-1.11327.72771-2.3724,1.29016-3.94418,2.58886-7.23747,3.8891-10.87055,6.33133-11.952.083-.03646.18387-.083.30257-.13809.25058-.11637.57254-.26533.95268-.42592a8.92584,8.92584,0,0,0-.8433,2.9946,12.82013,12.82013,0,0,0,2.72928,9.48807c2.15052,2.48257,6.10634,4.24287,8.18006,2.88289.57564-.37782,7.57339-9.81314,6.33366-11.76273a2.7068,2.7068,0,0,0-1.41817-.91777,11.49107,11.49107,0,0,1-3.68894-2.27311c-2.39956-2.12569-5.39649-2.76729-8.94113-1.92243a5.62917,5.62917,0,0,1,2.45-.4135,9.14067,9.14067,0,0,0,3.51671-.602,10.66022,10.66022,0,0,1,2.2925.71917,11.49662,11.49662,0,0,1,4.22657,3.42362c.96045,1.12414,1.71919,2.01244,2.95271,1.79211,1.14276-.20326,3.35379-4.40269,6.85965-11.29569,1.18233-2.32741,2.29948-4.519,3.18079-6.08307,2.5904-4.60672,5.59586-7.22117,8.93492-7.76812,3.0877-.50737,6.38176.78977,9.78753,3.85652a8.40116,8.40116,0,0,1,2.56791,3.69981,8.5462,8.5462,0,0,1,.24438,4.20019,17.54029,17.54029,0,0,0-.75253-2.5136c-.65477-1.70677-1.13888-2.82392-1.85572-2.75022-.56246.059-.67883.70986-.85339,1.6959a14.80208,14.80208,0,0,1-.63228,2.54309,6.93952,6.93952,0,0,1-1.9333,2.90693,7.47708,7.47708,0,0,0-1.60979,2.09466c-1.23431,2.48257-.64469,5.035-.21489,6.90465.30644,1.32817.54771,2.37706.0287,2.7541-.34135.24826-.78045.04732-1.65944-.39178a11.01646,11.01646,0,0,0-3.25837-1.15517c-3.95659-.654-7.305,1.45308-12.85428,4.94342a29.12084,29.12084,0,0,0-3.51283,2.51127,26.69564,26.69564,0,0,1-3.60128,2.52912c-.931.56712-1.73314,1.02484-2.44145,1.42981-2.10786,1.20094-3.3794,1.92554-4.48957,3.56869a10.75846,10.75846,0,0,0-1.60979,5.63854c-.0256.29635-.05121.59736-.08224.903a40.34637,40.34637,0,0,1-3.64627,12.74644c-1.26146,2.90771-2.09467,4.82938-.8433,6.07919.46548.46549,2.1482.71917,5.61371,1.2118a65.38885,65.38885,0,0,1,11.86979,2.43059c6.104,2.20018,13.28252,5.74637,12.81393,10.15139a3.70335,3.70335,0,0,1-.27153,1.031C83.52881,196.061,68.33238,186.83443,64.683,189.8042c-1.249,1.01553-1.76805,3.765-1.29248,6.841a13.88808,13.88808,0,0,0,8.42987,11.094c5.64241,2.225,12.93884.75641,17.23135-1.84331a9.96059,9.96059,0,0,0,3.37552-3.11175q1.74633,1.16371,3.56869,2.4205c6.20643,4.28631,12.03892,4.13969,18.47652,3.54076,6.89844-.64158,13.61766-2.495,15.62932-4.31036.19085-.173,4.18391-3.83712,3.94651-8.13894.95114.3398,1.5935.54306,1.77892.58728a3.07218,3.07218,0,0,0,2.63772-.2917c.87433-.67805.91234-1.96822.94338-3.00469a3.47231,3.47231,0,0,1,.187-1.36852,6.744,6.744,0,0,1,2.61368-2.353c.13267-.07759.25757-.14586.37316-.218.13267.06284.26921.12645.40653.19007a19.86043,19.86043,0,0,0,.15516,12.33526c1.25757,3.38328,3.42439,5.42363,6.09936,5.74094a100.38478,100.38478,0,0,0,15.43847.46548.73.73,0,0,0,.47867-.474c.21723-.69435-.585-1.81537-2.34137-4.27312-1.16991-1.63772-2.7735-3.879-4.58965-6.74948-.92088-1.45541-1.72306-2.80918-2.42672-4.073a9.57829,9.57829,0,0,0,2.74557-.63539l.62064-.25136a37.901,37.901,0,0,0,8.67891-4.47484,11.2305,11.2305,0,0,0,5.34606,4.7068,2.9589,2.9589,0,0,0,2.4143.02094,1.70747,1.70747,0,0,0,.18464-.11791,18.99807,18.99807,0,0,1,1.43213,2.10475,7.02584,7.02584,0,0,1-.80839,1.02328l-.13887.14275c-.7665.77581-2.56015,2.6036-2.28862,4.81.23274,1.91933,1.95658,3.22346,3.42905,4.14511,4.66335,2.92012,9.8046,6.13971,15.64329,6.13893a16.04658,16.04658,0,0,0,5.488-.97751,19.33067,19.33067,0,0,0,8.4803-6.20022c12.34457-1.50118,20.82643-4.12339,24.40287-6.68276a3.53217,3.53217,0,0,1,.616,1.699c-.00776.07758-.05431.294-.10862.54306-.287,1.31886-.886,4.06831-.13266,5.60363,1.34757,2.74711,5.33907,1.82934,7.04353,1.43679,1.04733-.24128,3.33208-2.10243,3.02562-4.13892a8.038,8.038,0,0,0-1.3274-3.39492c-.09077-.1412-.197-.31031-.2467-.41117.47323-.21567.63229-.29946.72848-.35066a3.3,3.3,0,0,1,.54307-.20792l.63306-.22188c1.27465-.45,1.63772-1.59893,1.98762-2.70987a5.51528,5.51528,0,0,1,1.42205-2.64316c.05121.09154.104.18153.15517.27154a6.72146,6.72146,0,0,1,1.13423,3.6067,7.57915,7.57915,0,0,1-.2374,2.07993,3.94118,3.94118,0,0,0-.02559,2.23819c.67416,2.346,3.12417,3.90539,5.25374,4.40967,1.95658.46548,5.18.3879,5.8899-1.24671.62452-1.44067-.52522-3.66645-1.70677-5.48494a21.00083,21.00083,0,0,0,7.35152,1.02872h45.31074a.36.36,0,0,0,0-.71994ZM51.039,196.08975a13.28155,13.28155,0,0,1-5.5082-7.88448c-.68348-2.27853-2.21492-12.63472-.59969-13.37639a1.29008,1.29008,0,0,1,.53142-.09155c1.39645,0,4.39183,1.24517,6.73475,3.98453,4.56327,5.33287,7.62924,13.717,4.73239,17.22282-.62064.7502-2.14587,1.23275-3.84565,1.53609A18.324,18.324,0,0,1,51.039,196.08975Zm18.3679-50.67a12.28721,12.28721,0,0,0,3.89376,2.405c.55082.22421.91467.37161,1.08612.63616.77037,1.2118-5.26848,10.101-6.12108,10.77513-1.56324,1.02406-5.15056-.33825-7.24212-2.75255a12.0769,12.0769,0,0,1-2.56015-8.93337,7.3701,7.3701,0,0,1,1.23585-3.50352C62.22449,143.16525,66.11436,142.50505,69.40686,145.41974Zm-2.5842-4.22658a18.4171,18.4171,0,0,0-3.27776-.23274H63.157c-1.685.00543-2.65092-.0256-2.97753-.71141-.26765-.56478.14507-1.5229.89527-3.25837a2.19319,2.19319,0,0,0-.29557-2.59739c-.56091-.76571-1.19552-1.62918.45-5.03108a24.038,24.038,0,0,1,2.56558-3.39181c.57953-.69822,1.18-1.41817,1.70677-2.09467,3.86737-4.96048,7.88371-3.0489,10.284-1.90537.30023.142.5834.27774.83321.38247,3.08769,1.294,6.284,2.6323,6.90464,5.526a6.4935,6.4935,0,0,1-.79054,4.35924,9.38688,9.38688,0,0,0,.01785-1.796c-.08844-1.04268-.62065-4.02176-1.83633-4.03418-.52754,0-.75408.512-.993,1.06208a4.34844,4.34844,0,0,1-1.58031,2.1094,3.0333,3.0333,0,0,1-.713.33748,2.183,2.183,0,0,0-.98216.6059,2.9946,2.9946,0,0,0-.74865,1.46937,2.948,2.948,0,0,1-.46548,1.08613,1.88983,1.88983,0,0,1-1.07836.71916,4.38631,4.38631,0,0,0-1.533.84874,4.27619,4.27619,0,0,0-1.21646,1.7471,8.87907,8.87907,0,0,1-.7758,1.43912,9.91023,9.91023,0,0,1-2.87047,2.72074,7.35638,7.35638,0,0,1-1.13733.64Zm21.84661,64.08753c-4.14046,2.50817-11.17156,3.92789-16.59442,1.78978-6.27624-2.474-7.69674-8.689-7.983-10.53695-.42437-2.74479.01086-5.34063,1.03492-6.17384a2.48948,2.48948,0,0,1,1.58962-.43213c3.95659,0,13.17856,4.5625,25.10343,12.46018a9.21509,9.21509,0,0,1-3.15208,2.89218Zm49.56683-58.62355c.25213,3.772.41737,6.26383-.42437,6.78828a1.20014,1.20014,0,0,1-.47712.16369c-.64082-2.71531-1.19473-5.54156-1.55161-7.94267-.87355-5.9504-.142-6.40968-.13576-6.412a.14338.14338,0,0,1,.04577-.007c.301,0,1.06518.69822,1.96433,1.84331A50.58816,50.58816,0,0,1,138.2361,146.65714Zm-13.25925-.13033a20.673,20.673,0,0,1-2.19475-6.33831c-.76649-3.99771-1.27309-6.63932-.16369-9.592a16.73956,16.73956,0,0,1,.76107-1.67651,9.01266,9.01266,0,0,0,1.18852-3.91626,8.08622,8.08622,0,0,0-.17921-2.256,6.23383,6.23383,0,0,1-.11792-2.17225c.00466-.04267.52057-4.31967,2.69747-4.8829a1.92763,1.92763,0,0,1,.48333-.059,4.661,4.661,0,0,1,3.03416,1.6028c1.66022,1.57178,1.94339,3.17536,2.45619,6.087.21258,1.20327.45307,2.56558.841,4.22115a15.78805,15.78805,0,0,1-.39876,1.87744c-.04423.14663-.09.32972-.14042.53608l-.00466.01784a1.01394,1.01394,0,0,0-.346-.55c-.74012-.62064-2.05122-.20869-2.70911.13421-.54306.284-.98449.53919-1.37162.76417-.44377.25757-.827.47945-1.2731.69434a.56559.56559,0,0,0-.32352.52057c-.01086.64624.931,1.62918,1.54462,1.94959.0388.02095.09078.05276.15516.09155a3.08152,3.08152,0,0,0,2.03338.58185,2.6377,2.6377,0,0,0,1.19086-.49962c-.01086.23817-.01552.48953-.01318.75563,0,.474.0287.85338.04964,1.15672.04578.678.05043.88287-.13576,1.08613-.50738.56245-1.75565.35376-2.9628.15516a8.0832,8.0832,0,0,1-2.98684-1.021,8.97677,8.97677,0,0,1-2.668-2.55395c-.27386-.3716-.48953-.66564-.8146-.46548-.35764.21645-.46549.2824,1.60514,4.15753l.12413.23275a64.90029,64.90029,0,0,1,3.48646,7.53847,21.63656,21.63656,0,0,0,2.31422,4.65094c1.6447,2.47637,4.54387,4.75025,6.63467,4.97135.30334,1.26378.59194,2.374.82778,3.21492l.03181.11327a8.229,8.229,0,0,1,.23274,4.9504,4.81009,4.81009,0,0,1-.98217,1.68194,5.02953,5.02953,0,0,0-.19628-1.41584,4.29327,4.29327,0,0,0-2.08691-2.77039c-1.18465-.56478-2.2925-.09154-4.49966.85338-.34524.14663-.72072.31032-1.13035.47789a20.31268,20.31268,0,0,1-4.18933,1.19086c-1.55626.30489-2.78591.54306-3.66954,1.744a5.97408,5.97408,0,0,0-.43833.69822,21.69463,21.69463,0,0,1,.7758-5.13659,14.16375,14.16375,0,0,1,2.654-5.35924,7.71477,7.71477,0,0,0,1.80452-3.879A5.94662,5.94662,0,0,0,124.97685,146.52681Zm7.45934-15.23522c-.06516.35222-.14042.76494-.20093,1.2537a2.12029,2.12029,0,0,1-1.39645.90614,2.433,2.433,0,0,1-1.54307-.48255,2.30367,2.30367,0,0,0-.1986-.11715,2.96361,2.96361,0,0,1-1.14508-1.23042c.43212-.21335.81846-.43755,1.22577-.6734s.81226-.47169,1.34291-.74865,1.52523-.54849,1.9139-.2211C132.627,130.14108,132.59058,130.45062,132.43619,131.29159Zm1.7634-2.11328A37.26361,37.26361,0,0,0,135.506,133.079a33.97274,33.97274,0,0,1,1.84718,6.36158l.04888.24438c-.7665-.81148-1.51359-1.32584-2.04347-1.08612-1.63927.73546-.12645,9.1312,1.24129,14.973-1.72073-.34136-4.30571-2.28241-5.85653-4.61758a21.04932,21.04932,0,0,1-2.24517-4.5175,65.64082,65.64082,0,0,0-3.52059-7.61218l-.12413-.23274q-.44065-.8239-.76805-1.457a8.5924,8.5924,0,0,0,1.64083,1.27852,8.83785,8.83785,0,0,0,3.23742,1.11328c1.39645.23274,2.84488.47557,3.616-.38014.398-.44143.36618-.9108.31885-1.6191-.02017-.2948-.045-.661-.04733-1.114a13.38833,13.38833,0,0,1,.08224-1.609,8.68282,8.68282,0,0,0,1.01553-2.67187c.04888-.194.09077-.3654.13188-.50427C134.10417,129.53905,134.14761,129.38622,134.19959,129.17831Zm-21.01805,37.09423c.25834-1.18.57952-2.647.89994-4.49966a36.72626,36.72626,0,0,0,.62685-9.066c-.00776-.11947-.02638-.33592-.059-.72382l-.02948-.34911c-.48565-5.70681-.72305-6.68975-1.40885-7.57106a5.90941,5.90941,0,0,0-2.46394-1.803,6.40731,6.40731,0,0,0-2.41042-.405c-.13809,0-.2692,0-.39255.00465a3.50374,3.50374,0,0,1-.72383-.02948c.00776-.18231.44222-.57952.7952-.90381a11.24251,11.24251,0,0,0,1.19086-1.21568c1.33981-1.65479,1.39024-3.31734,1.46705-5.83559.02482-.79753.05274-1.70056.12413-2.72462a37.35564,37.35564,0,0,1,1.75952-9.51134c.8945-2.62144,1.73935-5.097,4.06908-7.042a10.12273,10.12273,0,0,1,6.35538-2.495,10.39031,10.39031,0,0,1,7.22272,2.93021c3.291,2.95348,3.91161,7.0598,3.81075,10.12888-.13732-.706-.25213-1.35377-.35843-1.962-.52288-2.962-.83786-4.75025-2.67108-6.48494-1.54307-1.46084-2.95426-2.03881-4.18933-1.7184-2.65014.685-3.211,5.30106-3.23276,5.49733a6.9392,6.9392,0,0,0,.12568,2.38948,7.46347,7.46347,0,0,1,.16912,2.07915,8.32744,8.32744,0,0,1-1.11405,3.63541,17.4505,17.4505,0,0,0-.79132,1.74478c-1.18,3.14355-.65789,5.86275.13188,9.98148a21.2994,21.2994,0,0,0,2.25914,6.533,5.24919,5.24919,0,0,1,.85339,3.72385,7.05363,7.05363,0,0,1-1.66952,3.55163,14.94573,14.94573,0,0,0-2.77039,5.59975c-.6315,2.3274-1.04579,5.57957-.63617,6.284a.48645.48645,0,0,0,.301.23817c.38015.0962.56867-.26144.76882-.64a6.18239,6.18239,0,0,1,.49962-.82933c.71839-.97363,1.71763-1.16914,3.22889-1.46549a20.85468,20.85468,0,0,0,4.33053-1.23431c.412-.17067.789-.332,1.13578-.47944,2.07217-.88286,3.01787-1.28628,3.91-.86114a3.63226,3.63226,0,0,1,1.70677,2.31422,3.80141,3.80141,0,0,1,.04111,2.0807c-.46549.42281-1.02407.87278-1.68893,1.377a27.612,27.612,0,0,1-4.07141.36308,8.257,8.257,0,0,1-2.60592-.06672c.05432-.47169,2.1676-1.80994,2.969-2.31732,1.43212-.90614,1.81771-1.149,1.609-1.56867a.42051.42051,0,0,0-.27154-.21723c-.79831-.22576-7.19325,1.9814-13.88687,6.15212-1.35377.84485-2.93563,1.90149-4.36078,2.87823a2.58352,2.58352,0,0,1-.60668-.56168C112.32816,170.1601,112.578,169.022,113.18154,166.27254Zm13.8093.8014c.25446.68348,1.34291.6284,3.32043.52987,1.10164-.0543,2.0295-.10085,2.81074-.17765q-.5997.436-1.28861.931c-3.88522,2.78669-5.83714,4.18934-8.13429,4.11176a8.6284,8.6284,0,0,1-1.31111-.15516,3.42357,3.42357,0,0,0-2.02873.08766c-1.73857.65478-2.57179,2.391-3.1808,3.65792a4.98,4.98,0,0,1-.62684,1.10319,4.129,4.129,0,0,1-.21179-.79365,8.21186,8.21186,0,0,0-1.43446-3.49111,5.06688,5.06688,0,0,0-.585-.66409c1.3693-.93562,2.86349-1.93175,4.1521-2.73471a55.81065,55.81065,0,0,1,12.108-5.7937l-.32817.20792c-2.17612,1.37551-3.578,2.3406-3.263,3.18157Zm-4.872,23.15228a7.39531,7.39531,0,0,1,4.67575-.3879c.84873.21567,5.14048,1.46937,6.26926,5.097.02948.09543.05663.19007.07759.28628a86.099,86.099,0,0,1-11.02416-4.9954Zm16.86362,1.59662a3.51593,3.51593,0,0,0-.31031,1.74477c-.02793.931-.059,1.98839-.66486,2.45852a2.48258,2.48258,0,0,1-2.03959.15516c-.28006-.06361-1.00854-.29946-2.02718-.66719a6.42905,6.42905,0,0,0-.194-.79519c-1.24129-3.99306-5.86585-5.34917-6.78052-5.58035-2.07062-.52288-3.30026-.1443-5.33674.4841l-.36618.11249c-2.61989-1.5516-4.62689-3.17691-4.955-4.59973a3.74168,3.74168,0,0,1,.7758-3.61136c1.44066-1.53221,4.374-1.97132,6.52683-1.61057,4.25139.71141,8.78985,3.00314,15.66656,7.9132a20.91688,20.91688,0,0,0,2.50739,1.44221A7.4354,7.4354,0,0,0,138.98242,191.82284Zm3.519-3.01244a21.44387,21.44387,0,0,1-2.79987-1.56868c-6.97292-4.976-11.59825-7.30418-15.96679-8.03422-2.26845-.37936-5.4795.03026-7.16919,1.82625a4.422,4.422,0,0,0-.95579,4.26691c.35221,1.5229,2.239,3.16218,4.7324,4.71455-.97285.2855-2.13889.595-3.61834.90226a40.48366,40.48366,0,0,1-10.27629.83709c-2.80685-.07061-5.02254-.12569-8.05283,1.41893l-.15051.07759c-.65788.33825-1.75719.90692-2.3018.53763-.75176-.50815-.20947-2.71531.26765-4.66724.16913-.69046.34445-1.40343.47712-2.083.69356-3.53223-.59117-8.92173-3.56249-20.76824q-.22575-.90381-.43523-1.72151c-1.45695-5.74094-2.12182-8.35695-.63615-11.0676.28549-.52134,1.82158-3.13115,3.99926-3.22346.20481-.00854.40419-.01319.60047-.01319,2.47792,0,4.30571.76029,6.03653,3.976,2.26457,4.20951,3.97444,13.48035,3.51672,19.07777a7.74635,7.74635,0,0,1-2.699,4.84411c-.49574.49109-.74554.73779-.74554,1.0388a.46547.46547,0,0,0,.13887.3336c.495.49031,1.31886-.08224,4.75412-2.58188.74865-.54306,1.59272-1.1637,2.5299-1.83012.43833-.31032,1.83865-1.31033,3.52214-2.4686a4.12078,4.12078,0,0,1,.62064.67728,7.47257,7.47257,0,0,1,1.30491,3.20483c.14972.72073.26765,1.28939.789,1.38016.62064.10551.94881-.578,1.40343-1.52368.55625-1.15749,1.31886-2.74246,2.78591-3.29561a2.72537,2.72537,0,0,1,1.65013-.05275,9.2136,9.2136,0,0,0,1.412.16369c2.54308.08689,4.56017-1.36308,8.57961-4.246.90613-.65012,1.70676-1.22654,2.41663-1.75874a2.65786,2.65786,0,0,0,1.70676-1.07372,2.87384,2.87384,0,0,0,.28162-.557,6.46245,6.46245,0,0,0,1.89141-2.72618,8.83633,8.83633,0,0,0-.2211-5.36622l-.02954-.11558c-.27075-.96587-.53763-1.9876-.79209-3.03416a1.88073,1.88073,0,0,0,.68969-.25369c1.20793-.75331,1.05975-2.99073.76184-7.44771-.10861-1.62918-.19085-2.87047-.37472-4.25916.41661.61444.83942,1.29482,1.24129,2.02175,1.30258,2.367,3.38095,7.52528,2.65713,15.48192a19.87589,19.87589,0,0,1-1.65246,6.80069,14.25158,14.25158,0,0,0-1.30646,6.08229,36.82351,36.82351,0,0,0,2.86271,14.94817c.28783.62685.33514.893.11637,1.1226Zm52.58547-33.1873a6.67875,6.67875,0,0,1-1.13423-.4104,23.72114,23.72114,0,0,1-7.40272-5.39726,25.025,25.025,0,0,1-2.72928-3.22424,2.43212,2.43212,0,0,0-1.46781-1.22034,3.77971,3.77971,0,0,0-1.05276-.14973c-1.59195,0-3.04968.98915-4.36389,1.87977-1.28007.86657-2.38405,1.61522-3.23975,1.24128-.67728-.29868-1.09156-1.474-1.339-6.83482-.37936-8.22351.06982-11.20259,2.28552-15.18944.96587-1.7378,1.80063-3.2382,3.58575-4.20873a11.17162,11.17162,0,0,1,9.01638-.84563c5.34218,1.765,10.24059,7.37866,14.56647,16.68364l.28627.61521c2.23121,4.80067,3.06675,6.59433,2.63772,8.63624-.616,2.94107-2.79289,4.78981-4.23124,6.0148a17.86553,17.86553,0,0,1-3.98995,2.70135A11.57092,11.57092,0,0,1,195.08693,155.6231Zm-27.08715,21.53706c1.39644.429,2.66953,1.08613,2.90305,2.09467a6.426,6.426,0,0,1-1.5966,5.8961C168.36828,183.49459,167.67006,180.96858,167.99978,177.16016Zm-.70444-.197a20.47539,20.47539,0,0,0-.03879,3.51671c-.04888-.25834-.11094-.53531-.19162-.83243a12.03641,12.03641,0,0,0-1.30334-3.00779c.474.08379,1.00078.19007,1.533.32351ZM151.296,169.81564a4.31663,4.31663,0,0,1,2.50584-.66642,10.58884,10.58884,0,0,1,4.37164,1.04346,23.19644,23.19644,0,0,1,6.08385,5.49036c-4.81-.602-9.32826.865-13.91169,4.56793-1.0706-3.308-2.03959-8.32515.94959-10.43533Zm-4.68352,14.98386a40.3729,40.3729,0,0,1,3.39335-3.32432l.07759.2149a69.50373,69.50373,0,0,0,4.51518,10.44774H154.59a28.86748,28.86748,0,0,1-10.7278-2.70058,13.84639,13.84639,0,0,1,2.75022-4.63852Zm10.9908,12.46714c1.827,2.88754,3.4368,5.13892,4.61292,6.78284,1.21336,1.69746,2.36,3.30182,2.246,3.63076a.06439.06439,0,0,1-.02483.014,108.84449,108.84449,0,0,1-15.12815-.49806c-2.39336-.28549-4.35071-2.15906-5.50821-5.27546a19.08491,19.08491,0,0,1-.173-11.78677c3.23277,1.422,7.57727,2.84176,11.35776,2.7223.75176,1.36,1.61367,2.8247,2.61756,4.40966Zm1.27852-6.01247-.62064.25292a9.10961,9.10961,0,0,1-2.85652.60667,68.55908,68.55908,0,0,1-4.64318-10.66419l-.12335-.34523c-.014-.04112-.02947-.08224-.04422-.12413,4.60827-3.78592,9.12033-5.23512,13.94273-4.533l.28549.0419a11.83024,11.83024,0,0,1,1.5516,3.34759,8.96355,8.96355,0,0,1,.30412,3.06675,6.67189,6.67189,0,0,0,.48566,3.18777q.15362.37938.3367.74167a37.46521,37.46521,0,0,1-8.61839,4.42053Zm8.94579-5.43062a5.98989,5.98989,0,0,1-.43523-2.89064c.01552-.37549.03181-.7758.00853-1.23275a11.14111,11.14111,0,0,0,1.39257,4.00237c-.23274.23275-.47169.45229-.72461.66719-.08532-.18154-.16679-.36541-.24126-.54849Zm7.41435,5.72388a2.33515,2.33515,0,0,1-1.82546-.06982,10.45936,10.45936,0,0,1-5.01866-4.48337c.27153-.22731.533-.4616.78123-.70288a8.05633,8.05633,0,0,0,.69357.84562,5.439,5.439,0,0,0,1.43679,1.10629c.31575.18465.70985.41583,1.25913.80451a15.46859,15.46859,0,0,1,2.74556,2.45464q-.03461.0231-.07139.04268Zm.99458-.05973a7.70072,7.70072,0,0,0,.19628-3.07451c-.045-1.18543-.10086-2.65945-.03569-4.61758a50.65346,50.65346,0,0,1,.85339-7.63933,37.01891,37.01891,0,0,0,.55624-4.15132c1.95037,10.30964,1.88908,17.49435-.18386,21.45327a18.767,18.767,0,0,0-1.38792-1.97365Zm22.05219,17.28178c-7.84726,2.82936-14.57268-1.3786-20.506-5.09315-1.41972-.88985-2.89839-2.01709-3.09623-3.623-.23274-1.86192,1.39645-3.51438,2.08768-4.21881l.14586-.149a7.46324,7.46324,0,0,0,.68969-.83632c.11327.19939.225.39644.3367.59427a15.80158,15.80158,0,0,0,2.9752,4.13735c3.93643,3.63542,11.71075,4.81,14.99394,4.62535,3.56869-.19629,6.92248-.48178,10.03734-.83709a18.46407,18.46407,0,0,1-7.66415,5.39725Zm8.31194-6.194q-4.87245.58185-10.7247.91467c-3.08383.16912-10.734-.98915-14.4664-4.43449a15.27864,15.27864,0,0,1-2.83711-3.96591c-.17068-.30256-.34446-.61056-.52677-.92321,2.61523-4.53456,2.49653-13.35156-.35454-26.29195q-.02444-.21995-.05275-.4492c-.38791-3.11639-1.11948-5.18468-1.38714-5.37476a.37473.37473,0,0,0-.29092-.059.36845.36845,0,0,0-.23274.1637c-.10241.16369-.10241.16369.28239,1.71452q.52679,2.12259.96665,4.11176a25.29148,25.29148,0,0,1-.43755,8.04973,51.21613,51.21613,0,0,0-.86191,7.73863c-.06672,1.98295-.00776,3.53534.03491,4.668a12.52586,12.52586,0,0,1-.02948,2.405,16.20773,16.20773,0,0,0-2.70057-2.38327c-.5741-.405-.98217-.64547-1.31033-.83709a4.72337,4.72337,0,0,1-1.277-.97906,7.30069,7.30069,0,0,1-.7083-.88053,7.12806,7.12806,0,0,0,1.91468-6.6719c-.315-1.36619-1.879-2.17225-3.53067-2.66256q.0384-.33282.08767-.678c.11326-.80451.22032-1.51049.31575-2.14587a21.26,21.26,0,0,0,.31032-7.11334c-.0512-.38169-.13034-.79519-.2149-1.23274a23.08278,23.08278,0,0,1-.505-5.00393,15.74374,15.74374,0,0,1,.0993-1.90537c.1637-1.31887.59893-4.8224,3.42362-7.20644a21.936,21.936,0,0,1,8.13894-.87433c2.18311.225,3.73471,1.27154,6.82707,3.35768a27.84432,27.84432,0,0,1,3.05433,2.34991,4.45858,4.45858,0,0,0,2.19087,1.27619,7.60287,7.60287,0,0,0,4.8286-.602,9.90014,9.90014,0,0,0,6.31815-1.14974,10.62839,10.62839,0,0,0,3.08614-3.10322c.66022-.91,1.05276-1.42359,1.48567-1.35222.88208.1412,1.38171,2.322,1.571,3.14356a69.80961,69.80961,0,0,1,2.01011,15.29262c-.01707.80374.02406,1.97364.07759,3.45465.21954,6.25608.6284,17.89856-2.69282,26.56427a14.069,14.069,0,0,1-1.88214,3.07292ZM247.50018,137.228a.60036.60036,0,0,1,.21334-.16137l.13732.22808a3.696,3.696,0,0,1,.70442,2.19242,8.2414,8.2414,0,0,1-2.44534,5.526,4.54227,4.54227,0,0,1-3.05124,1.53532h-.01939a3.76581,3.76581,0,0,1-2.70833-1.52135,5.85827,5.85827,0,0,0,2.80687.06129,6.40191,6.40191,0,0,0,3.65636-2.9946,6.92317,6.92317,0,0,0,.77581-2.24207,5.5331,5.5331,0,0,0-.05121-2.07139C247.45363,137.43906,247.43656,137.31105,247.50018,137.228Zm-9.86975,2.87046a6.36172,6.36172,0,0,0,2.26069-1.29016,4.49964,4.49964,0,0,0,1.1024-2.82392c.09078-.71606.1606-1.1637.46161-1.26533.18308-.06517.33593.01319.66486.22032a2.05584,2.05584,0,0,0,1.42979.41584c1.7797-.23275,2.95891-3.06132,2.78669-5.33442-.05431-.706-.128-1.67263-.82467-2s-1.37006.25912-2.02329.8239c-.6315.54306-1.28241,1.1094-1.93951,1.00311-.45618-.0737-.661-.42359-1.08612-1.20637a10.13206,10.13206,0,0,0-2.13267-2.87823,11.9388,11.9388,0,0,0-3.1808-2.07294,10.09135,10.09135,0,0,0-2.95813-.91,5.4307,5.4307,0,0,1-1.97054-.62685,6.90457,6.90457,0,0,1-3.13579-3.69515,1.23357,1.23357,0,0,1,.01939-.90691c.15981-.26222.60823-.25834,1.53065-.22421a18.73662,18.73662,0,0,0,2.841-.06982,10.60354,10.60354,0,0,0,3.90307-1.1288,8.39278,8.39278,0,0,1,2.75719-.87743,10.89451,10.89451,0,0,1,8.37324,2.38482,9.82718,9.82718,0,0,1,3.12959,6.25375,9.05888,9.05888,0,0,1-1.44765,5.21262,8.2812,8.2812,0,0,0-1.33282,5.64862,6.13647,6.13647,0,0,0,.52134,1.70676,1.194,1.194,0,0,0-.4523.33825,1.30025,1.30025,0,0,0-.11715,1.12336,4.8303,4.8303,0,0,1,.04733,1.82469,6.15873,6.15873,0,0,1-.69123,2.00157,5.67657,5.67657,0,0,1-3.22813,2.6579,5.54928,5.54928,0,0,1-3.42981-.3879c-.16059-.2149-.31962-.43212-.47711-.64857a8.73419,8.73419,0,0,0-2.56713-2.69126,4.887,4.887,0,0,1,1.166-.57641Zm.37393,3.07606a9.95534,9.95534,0,0,1-1.06363-.86192,2.01711,2.01711,0,0,1-.64315-.917,6.88949,6.88949,0,0,1,1.706,1.77969Zm-6.39727,52.30618a105.15884,105.15884,0,0,0-6.72466-8.8232,82.6837,82.6837,0,0,1-5.599-7.336c-.22731-.38246-.49652-.82-.79441-1.30179-2.48258-4.01944-7.10558-11.50206-3.27931-15.15143a4.10162,4.10162,0,0,1,2.03182-.97907,31.84052,31.84052,0,0,0,10.32205,3.879c.09541.01784.19085.03413.28782.0512a20.06245,20.06245,0,0,1,2.84023,4.01944,29.57005,29.57005,0,0,1,3.052,8.208,48.81777,48.81777,0,0,0,1.54618,5.28089,34.61683,34.61683,0,0,0,2.23121,4.82705c.95269,1.775,1.52756,2.84565,1.04424,3.90927-.04112.09-.05819.12646-.65633-.09154-1.10087-.40032-3.14822-1.14508-5.54621,2.67652a3.85316,3.85316,0,0,1-.75568.83243Zm-13.17781-33.73423a12.69131,12.69131,0,0,1,2.96279.24671,11.49192,11.49192,0,0,1,5.54311,2.91314c-.87356-.187-1.85494-.44221-2.91935-.77581A31.76714,31.76714,0,0,1,218.42928,161.74651Zm25.06775,32.4433c-.33747,1.07061-.60434,1.91778-1.54,2.24982l-.6315.22111a3.72269,3.72269,0,0,0-.64469.25213c-.08457.045-.24282.12878-.71917.34524a.66485.66485,0,0,0-.39411.412c-.09465.31886.09854.62065.36307,1.03027a7.281,7.281,0,0,1,1.22034,3.11252c.24281,1.6191-1.73626,3.16062-2.47636,3.32975-2.54153.585-5.26846.91777-6.23511-1.052-.64315-1.31033-.059-3.99.19006-5.13426.06594-.30023.10863-.49885.121-.62065a4.27619,4.27619,0,0,0-.76183-2.218,4.84466,4.84466,0,0,0,.986-1.08612c2.08845-3.32974,3.654-2.75954,4.68974-2.38249.51592.18775,1.22344.44531,1.557-.28783.63072-1.38791-.04423-2.6447-1.06517-4.547a33.91978,33.91978,0,0,1-2.18855-4.7324,47.99306,47.99306,0,0,1-1.52367-5.20874,30.57411,30.57411,0,0,0-3.1195-8.37867,21.65612,21.65612,0,0,0-2.37085-3.51128c1.34679.15515,2.62143.13188,2.94262-.43368s-.35066-1.076-1.27465-1.79055c-.85959-.66409-2.03492-1.5741-1.789-2.17225.27153-.65788,1.40576-.83321,2.405-.9876.89837-.13809,1.75254-.27,2.111-.7758a15.27589,15.27589,0,0,0,2.85106,2.08924,3.43546,3.43546,0,0,0-.42358.20248,3.92173,3.92173,0,0,0-1.6835,4.60129c.31886.82623,1.01476,1.30568,2.28008,2.1769a20.79658,20.79658,0,0,0,3.10321,1.69435c2.09932.95735,4.24286,1.67108,4.26692,1.67807a.36227.36227,0,0,0,.27-.01785c1.00854-.4841,1.43058-.91777,1.38015-1.40187-.06362-.60823-.80606-.82313-1.66487-1.07061-.62063-.17844-1.4655-.42359-1.52755-.758-.02174-.11947.03724-.33824.44375-.70831,1.1637-1.05819,3.93022-.7758,5.48415.56091a5.63987,5.63987,0,0,1,.51435.51746,1.63387,1.63387,0,0,0,1.06441.6765,2.01711,2.01711,0,0,0,1.47791-.52444,8.98772,8.98772,0,0,1-4.20951,4.33984c-2.86271,1.19784-5.8542.12878-8.25765-.72926-2.01709-.72072-3.61214-1.29016-4.58732-.36463a1.48413,1.48413,0,0,0-.3879,1.25526c.18853,2.35068,3.74558,7.04816,7.04894,9.30963a5.90468,5.90468,0,0,0,5.2809,1.01863,7.22476,7.22476,0,0,0-1.31888,5.22814,5.808,5.808,0,0,0,.50737,1.51281A5.96447,5.96447,0,0,0,243.497,194.18981Zm-3.31733-31.67914c.26765-.11714.51435-.24825.74088-.37.13732-.07371.27075-.14586.40341-.211.68115-.33437.9845-.32506,2.97056-.26533.9519.02948,2.25527.069,4.1389.08456l.97053.007a12.8471,12.8471,0,0,1,4.24443.41195c1.3305.40885,2.36387.78589,2.57877,1.5935a2.37938,2.37938,0,0,1-1.502,2.49576,3.68207,3.68207,0,0,1-2.65946-.654c-.84718-.4391-1.63539-.84718-2.22733-.36928a1.447,1.447,0,0,0-.4197,1.14276c-.01939.35377-.03878.57564-.20015.6796a1.10475,1.10475,0,0,1-1.25216-.346c-.39877-.53764-.03646-1.62919.0993-2.03959.083-.24826.12025-.36153.04266-.512a.36776.36776,0,0,0-.21568-.18232.37325.37325,0,0,0-.10785-.01629.36147.36147,0,0,0-.17221.04267c-.15517.07758-.18387.1924-.27308.49341-.15517.51591-.557,1.88753-1.27618,2.0807a1.0326,1.0326,0,0,1-.81149-.16679,12.30786,12.30786,0,0,0,.96123-2.38715c.10475-.39178.22343-.83632-.11326-1.00234-.2824-.13809-.52134.11327-.62452.22189-.4709.49883-1.56325,2.14509-1.097,3.20794a2.11791,2.11791,0,0,1-.25215.29946.49957.49957,0,0,1-.225.1412.37868.37868,0,0,1-.19163-.142,2.32052,2.32052,0,0,1-.4492-1.53454,2.5541,2.5541,0,0,1,.64625-1.39645c.23274-.30488.50195-.65167.27154-1.00156a.83086.83086,0,0,0-.72537-.31575,2.89683,2.89683,0,0,0-2.24983,1.0551,2.73788,2.73788,0,0,0-.47867,1.22344c-.07759.3879-.11715.54306-.2824.63616a.77583.77583,0,0,1-.7952-.083,1.17608,1.17608,0,0,1-.12181-1.38247,1.07291,1.07291,0,0,1,.46082-.41661.65012.65012,0,0,0,.42048-.56013.69206.69206,0,0,0-.2296-.46238Zm-1.28163,1.09078a1.85341,1.85341,0,0,0,.31031,2.30646,1.49807,1.49807,0,0,0,1.59195.13577,1.44293,1.44293,0,0,0,.6315-1.12414,2.06575,2.06575,0,0,1,.34446-.924,2.24982,2.24982,0,0,1,1.67962-.77115c-.038.05276-.08223.10939-.11947.15516a3.24288,3.24288,0,0,0-.79441,1.77969,3.05037,3.05037,0,0,0,.609,2.04269,2.9186,2.9186,0,0,0-.99149.57409,1.63769,1.63769,0,0,0-.66564,1.37007c.142.7758,1.1482,1.06363,2.03492,1.31886a3.543,3.543,0,0,1,1.149.44842s-.04732.21645-.84562.62064c-.50348-.17145-2.29483-.79985-4.05279-1.602a20.00483,20.00483,0,0,1-2.99537-1.62919c-1.18466-.81537-1.77814-1.22422-2.01709-1.84253a3.21337,3.21337,0,0,1,1.36618-3.71609,2.78353,2.78353,0,0,1,.91155-.31964,3.27236,3.27236,0,0,0,2.28553.36075,1.84033,1.84033,0,0,1,.249.15516,1.73234,1.73234,0,0,0-.68425.661Zm6.56328,25.86527c-.33825-1.83633.4197-3.654,1.81926-5.599a14.20825,14.20825,0,0,0,2.39335-1.68427c.29248-.24049.54307-.44841.7696-.60745,5.85266-4.15054,9.73011-8.62072,9.82943-9.87364a.54307.54307,0,0,0-.15051-.45.49884.49884,0,0,0-.36541-.13654c-1.12258.0194-5.88135,4.39182-8.11723,6.73087a59.35452,59.35452,0,0,0-4.83947,5.457,5.16915,5.16915,0,0,1-5.60129-.54306c-3.0427-2.0838-6.56949-6.6719-6.73707-8.77277a.81612.81612,0,0,1,.16758-.67651c.654-.62064,2.13424-.09232,3.84875.52057,2.5198.89993,5.65715,2.02174,8.77822.71606,3.7192-1.55161,5.30028-6.253,5.353-6.70992a.37858.37858,0,0,0-.15517-.3623.36536.36536,0,0,0-.27307-.06129c-.1637.02793-.23273.121-.3879.346-.29171.41739-1.18156,1.68893-2.00391,1.59195-.23273-.02637-.34912-.14818-.61443-.44221a6.19678,6.19678,0,0,0-.57953-.58185,5.69985,5.69985,0,0,0-2.14821-1.12336,1.88066,1.88066,0,0,0,.69434-.5609,1.57237,1.57237,0,0,0,.24206.49651,1.78976,1.78976,0,0,0,2.22112.52289,1.40728,1.40728,0,0,0,.52911-1.24516c.01707-.32429.03646-.52755.15517-.62065.22731-.18309.84484.1381,1.44376.44919a4.25843,4.25843,0,0,0,3.21958.69823,3.09156,3.09156,0,0,0,1.97054-3.36466c-.33359-1.25758-1.84719-1.72306-3.06365-2.09466a13.49276,13.49276,0,0,0-4.45156-.44454c-.29635,0-.62063,0-.969-.007-1.87589-.01629-3.17459-.05508-4.12261-.08379-2.04347-.06206-2.46861-.07758-3.31035.33825-.14042.069-.28162.1443-.42593.22111a5.86074,5.86074,0,0,1-1.1637.51978,4.49971,4.49971,0,0,0-2.225-.34833c-.09542-.05741-.18853-.11637-.27852-.17378-.12181-.07758-.23273-.149-.34524-.211a14.872,14.872,0,0,1-3.12727-2.37861,3.26553,3.26553,0,0,0-1.021-1.09156,25.85766,25.85766,0,0,1-1.75176-2.31344c-.15051-.218-.27618-.40187-.37938-.53919-3.02562-4.05046-5.16607-6.12418-6.36933-6.163a.96437.96437,0,0,0-.79442.34368c-.1412.166-.31651.3716.97364,2.0838a26.53285,26.53285,0,0,0,3.23355,3.519,37.36509,37.36509,0,0,0,3.64628,2.90382c.33747.242.66022.47479.93639.68737.27076.31032.56479.6315.88365.9519a.19645.19645,0,0,1-.00542.04733c-.07759.29868-.95811.43367-1.66409.54306-1.18854.18386-2.53455.3879-2.962,1.42437-.45618,1.10241.9139,2.16216,2.01709,3.01244a7.04354,7.04354,0,0,1,1.03569.89838,7.05969,7.05969,0,0,1-3.007-.07758,12.5556,12.5556,0,0,0-6.67655-3.85807,12.08894,12.08894,0,0,0-4.15208-.16059c-2.5136-1.57565-4.80376-3.744-5.23047-6.53924a9.38034,9.38034,0,0,1,.74476-4.90075,32.09191,32.09191,0,0,1,10.163-11.12812c2.3181-1.54462,5.46241-2.0551,5.97369-1.77271.34988.19473.33979.67883.29249,1.45308-.06672,1.12414-.159,2.66333,1.7983,3.26458a9.64739,9.64739,0,0,0,3.81772-.36773,1.73381,1.73381,0,0,1,.60823-.02482v.10473a2.43911,2.43911,0,0,0,.90613,1.62919,9.42354,9.42354,0,0,0,2.59428,1.74633c1.04734,1.3755,2.26846,2.668,3.99,2.6804h.02328a5.24209,5.24209,0,0,0,3.56171-1.74633,8.99943,8.99943,0,0,0,2.65558-6.04118,4.39634,4.39634,0,0,0-.80839-2.56015l-.02173-.03414a35.14254,35.14254,0,0,1,9.1118,1.0644c4.25527.89606,11.22121,9.71306,13.5114,12.6099.35066.44376.58263.737.70288.87356,2.70832,3.08226,3.8984,4.52215,3.7068,6.35382-.2374,2.277-2.45853,4.10245-3.94652,4.98454a4.34921,4.34921,0,0,0,.91623-2.06364c.40729-2.84875-2.48258-5.27546-2.81151-5.54233-3.12338-2.52214-5.33208-2.21182-8.5571-.68737q-.0543.02561-.1319.066a3.64629,3.64629,0,0,1-1.74246.46548,6.29944,6.29944,0,0,0-.45308-.67029,3.05513,3.05513,0,0,1-.8433-2.49576,7.64187,7.64187,0,0,1,.94182-2.74091c.1319-.22576.29559-.5066.07138-.76029-.24516-.27619-.69123-.29558-1.22344-.05043a4.12107,4.12107,0,0,0-2.2087,4.18933,3.95661,3.95661,0,0,0,3.18622,3.19554l.04113.007c.06671.27308-.03646.5035-.35843.803-.26609.24593-.70442.571-1.16991.91467-1.50972,1.11794-3.07063,2.27233-2.53843,3.23588.287.519,1.08612.6377,2.0171.7758a3.71213,3.71213,0,0,1,1.834.55082,3.5555,3.5555,0,0,1,.62063,2.72539c-.03878.675-.0737,1.25758.31962,1.61988a1.41044,1.41044,0,0,0,1.21491.242,45.54611,45.54611,0,0,0,5.2452-1.0807c1.50195-.38169,2.58653-.65865,2.94183-.35609.993.84485-1.00853,6.49735-1.76106,8.6246-2.75875,7.79526-4.13968,9.96053-6.05125,12.95591-.44532.69822-.90614,1.41972-1.42284,2.27233-3.225,5.31967-4.68351,5.82472-5.2615,5.65094-.35921-.10706-.5229-.54306-.75952-1.25369a4.73778,4.73778,0,0,0-1.76961-2.70988,5.1623,5.1623,0,0,0-2.87048-.79519,6.12889,6.12889,0,0,0-3.097.81691,5.00457,5.00457,0,0,1-.39951-1.21722Zm3.33594-7.49581c.99071-1.14508,2.13888-2.3468,3.3631-3.62765a46.92249,46.92249,0,0,1,7.28866-6.37866c-.61289,1.23431-3.82858,5.059-9.41979,9.02492-.24517.17378-.5198.39876-.81073.63771-.14037.11017-.28.22732-.42588.34291ZM230.3332,156.29184a31.703,31.703,0,0,1-2.51748-2.07139,21.08013,21.08013,0,0,1-3.99306-4.69206.33191.33191,0,0,1,.0706,0c.34446.01164,1.78048.46548,5.81852,5.87438.0993.13189.21955.31032.36307.51591.07836.114.16137.2405.256.37238Zm27.84355-1.52368.02794.0388a3.19243,3.19243,0,0,1-1.99692-2.4174,3.41351,3.41351,0,0,1,1.21955-3.06753,2.37415,2.37415,0,0,1,.71995-.43135,8.59477,8.59477,0,0,0-.94338,2.82625,3.7238,3.7238,0,0,0,.97056,3.05278Z"/></g></svg>