<svg xmlns="http://www.w3.org/2000/svg" width="300" height="300" viewBox="0 0 300 300"><defs><style>.cls-1{isolation:isolate;}.cls-2{fill:#fff;}</style></defs><g id="Calque_1" data-name="Calque 1"><g id="Ton_guide_vers_la_majorité" data-name="Ton guide vers la majorité" class="cls-1"><g class="cls-1"><path class="cls-2" d="M40.8359,193.67193l.6123-7.7041H38.45992l.07226-.83984h6.94825l-.06055.83984H42.44429l-.6123,7.7041Z"/><path class="cls-2" d="M46.14547,193.39557a2.43584,2.43584,0,0,1-.97168-1.01954,3.30073,3.30073,0,0,1-.3418-1.53613,4.00139,4.00139,0,0,1,.36621-1.76367,2.75974,2.75974,0,0,1,1.02539-1.16992,2.8279,2.8279,0,0,1,1.53613-.41406,2.91881,2.91881,0,0,1,1.46973.35937,2.43831,2.43831,0,0,1,.97266,1.02637,3.33669,3.33669,0,0,1,.34179,1.542,4.00136,4.00136,0,0,1-.36621,1.76367,2.72717,2.72717,0,0,1-1.02539,1.16406,2.85872,2.85872,0,0,1-1.53613.40821A2.91037,2.91037,0,0,1,46.14547,193.39557Zm2.91015-1.12793a3.15034,3.15034,0,0,0,.50391-1.88379,2.28263,2.28263,0,0,0-.47363-1.542,1.84491,1.84491,0,0,0-2.75391.1504,3.09733,3.09733,0,0,0-.5166,1.88378,2.2869,2.2869,0,0,0,.46875,1.55372,1.7037,1.7037,0,0,0,1.35547.53417A1.6448,1.6448,0,0,0,49.05562,192.26764Z"/><path class="cls-2" d="M56.76656,188.02545a2.10983,2.10983,0,0,1,.5332,1.55469c0,.14355-.0039.25195-.01172.32421l-.2998,3.76758h-.96l.2998-3.708a1.97572,1.97572,0,0,0,.01172-.25195q0-1.40478-1.34375-1.4043a1.83448,1.83448,0,0,0-1.35644.50391,2.15434,2.15434,0,0,0-.5752,1.4043l-.27637,3.45605h-.97168l.34766-4.34375q.04834-.49218.04785-1.12793c0-.248-.0039-.43652-.01172-.56445h.91211l.02344.99609a2.0541,2.0541,0,0,1,.84668-.8457,2.56987,2.56987,0,0,1,1.24121-.29394A2.09134,2.09134,0,0,1,56.76656,188.02545Z"/><path class="cls-2" d="M67.81148,187.6358l-.48047,5.97656a2.59142,2.59142,0,0,1-2.84375,2.73535,4.46671,4.46671,0,0,1-2.41211-.63574l.252-.792a4.21169,4.21169,0,0,0,1.05078.49219,4.03863,4.03863,0,0,0,1.12109.14355q1.7168,0,1.88477-1.88379l.0957-1.23633a1.95106,1.95106,0,0,1-.82812.78028,2.54016,2.54016,0,0,1-1.17579.27637,2.48907,2.48907,0,0,1-1.9082-.75586,2.85153,2.85153,0,0,1-.708-2.02832,3.80551,3.80551,0,0,1,.3545-1.67969,2.67173,2.67173,0,0,1,.99609-1.13477,2.757,2.757,0,0,1,1.49316-.40136,2.468,2.468,0,0,1,1.2666.31152,2.01913,2.01913,0,0,1,.80957.876l.07227-1.044ZM66.125,192.046a2.704,2.704,0,0,0,.52246-1.75782,2.07247,2.07247,0,0,0-.48633-1.47656,1.77834,1.77834,0,0,0-1.36133-.51562,1.74975,1.74975,0,0,0-1.43457.6416,2.734,2.734,0,0,0-.52148,1.77051,2.0798,2.0798,0,0,0,.47363,1.46972,1.78562,1.78562,0,0,0,1.374.50977A1.74657,1.74657,0,0,0,66.125,192.046Z"/><path class="cls-2" d="M74.747,187.6358l-.46778,6.03613H73.331l.07227-.98437a2.01543,2.01543,0,0,1-.82813.792,2.492,2.492,0,0,1-1.17578.27637,1.839,1.839,0,0,1-2.04-2.05176q0-.22851.01172-.34863l.28809-3.71973h.97265L70.331,191.296a1.97761,1.97761,0,0,0-.01172.25195q0,1.40332,1.32032,1.4043a1.74429,1.74429,0,0,0,1.30761-.50391,2.18806,2.18806,0,0,0,.56446-1.4043l.27539-3.4082Z"/><path class="cls-2" d="M76.15133,193.67193l.48046-6.03613h.97168l-.48047,6.03613Zm.56445-8.59179h1.1875l-.084,1.10351H76.6191Z"/><path class="cls-2" d="M85.00777,184.8399l-.69629,8.832h-.94726l.07128-.98437a1.982,1.982,0,0,1-.82812.78613,2.4944,2.4944,0,0,1-1.17578.28223,2.52778,2.52778,0,0,1-1.33789-.35352,2.347,2.347,0,0,1-.90039-1.01465,3.50061,3.50061,0,0,1-.31739-1.53613,4.13846,4.13846,0,0,1,.35352-1.75781,2.77065,2.77065,0,0,1,.99609-1.18164,2.64292,2.64292,0,0,1,1.48243-.41992,2.41111,2.41111,0,0,1,1.248.31152,1.96373,1.96373,0,0,1,.792.876l.29981-3.83985Zm-1.9082,7.4336a3.04617,3.04617,0,0,0,.5166-1.86524,2.33284,2.33284,0,0,0-.46875-1.57226,1.88792,1.88792,0,0,0-2.77149.13769,2.99648,2.99648,0,0,0-.5166,1.85449,2.34692,2.34692,0,0,0,.48047,1.57813,1.8437,1.8437,0,0,0,2.75977-.13281Z"/><path class="cls-2" d="M87.04781,190.62408v.24024a2.24644,2.24644,0,0,0,.49219,1.54785,1.81179,1.81179,0,0,0,1.42773.55175,3.035,3.035,0,0,0,1.98047-.69628l.28809.708a2.71294,2.71294,0,0,1-1.02051.57032,4.07962,4.07962,0,0,1-1.28418.21,3.04979,3.04979,0,0,1-1.51758-.36035,2.455,2.455,0,0,1-.99023-1.01954,3.243,3.243,0,0,1-.34766-1.53613,3.98252,3.98252,0,0,1,.36621-1.74609,2.76665,2.76665,0,0,1,1.03809-1.18164,2.87632,2.87632,0,0,1,1.55957-.41992,2.4775,2.4775,0,0,1,1.82422.666,2.57888,2.57888,0,0,1,.67187,1.91406,4.38078,4.38078,0,0,1-.03613.55176Zm.74414-1.93848a2.27841,2.27841,0,0,0-.67187,1.30274h3.56347a1.7905,1.7905,0,0,0-.41406-1.29688,1.537,1.537,0,0,0-1.18164-.45507A1.87226,1.87226,0,0,0,87.792,188.6856Z"/><path class="cls-2" d="M100.64351,187.64752h.9961l-3.07227,6.02441h-.92383l-2.1123-6.02441h.98437l1.668,4.98047Z"/><path class="cls-2" d="M103.00679,190.62408v.24024a2.24649,2.24649,0,0,0,.49219,1.54785,1.81181,1.81181,0,0,0,1.42774.55175,3.03493,3.03493,0,0,0,1.98046-.69628l.28809.708a2.71294,2.71294,0,0,1-1.02051.57032,4.07962,4.07962,0,0,1-1.28418.21,3.04984,3.04984,0,0,1-1.51758-.36035,2.455,2.455,0,0,1-.99023-1.01954,3.2431,3.2431,0,0,1-.34766-1.53613,3.98238,3.98238,0,0,1,.36622-1.74609,2.7667,2.7667,0,0,1,1.03808-1.18164,2.87635,2.87635,0,0,1,1.55957-.41992,2.47749,2.47749,0,0,1,1.82422.666,2.57885,2.57885,0,0,1,.67188,1.91406,4.379,4.379,0,0,1-.03614.55176Zm.74414-1.93848a2.27847,2.27847,0,0,0-.67187,1.30274h3.56348a1.7905,1.7905,0,0,0-.41407-1.29688,1.537,1.537,0,0,0-1.18164-.45507A1.87226,1.87226,0,0,0,103.75093,188.6856Z"/><path class="cls-2" d="M112.51168,187.56353l-.084.876a2.13368,2.13368,0,0,0-.624-.0957,1.67748,1.67748,0,0,0-1.34473.5459,2.20476,2.20476,0,0,0-.51562,1.33789l-.28809,3.44433h-.97168l.34766-4.34375q.04833-.81591.04785-1.22461c0-.208-.00391-.36328-.01172-.46777h.91211l.01172.97168a2.03618,2.03618,0,0,1,.82226-.82129,2.35835,2.35835,0,0,1,1.15821-.29394A1.80962,1.80962,0,0,1,112.51168,187.56353Z"/><path class="cls-2" d="M113.75972,193.55767a3.37571,3.37571,0,0,1-1.10449-.582l.38379-.71972a3.50241,3.50241,0,0,0,.98438.55761,3.17556,3.17556,0,0,0,1.06835.17481q1.4751,0,1.47559-.92481a.67571.67571,0,0,0-.35351-.61718,4.70138,4.70138,0,0,0-1.08594-.41407,9.76305,9.76305,0,0,1-1.02637-.36035,1.75075,1.75075,0,0,1-.666-.5039,1.33131,1.33131,0,0,1-.27636-.876,1.56119,1.56119,0,0,1,.64844-1.30859,2.79056,2.79056,0,0,1,1.72753-.49121,3.53466,3.53466,0,0,1,1.22461.21,2.43734,2.43734,0,0,1,.93555.582l-.38379.708a2.66206,2.66206,0,0,0-1.77637-.72071,1.92714,1.92714,0,0,0-1.07324.252.81569.81569,0,0,0-.3789.7207.67727.67727,0,0,0,.35449.61816,4.73416,4.73416,0,0,0,1.08594.41309,9.99548,9.99548,0,0,1,1.03808.36035,1.75807,1.75807,0,0,1,.666.50391,1.34029,1.34029,0,0,1,.27636.876,1.47649,1.47649,0,0,1-.66015,1.27832,3.02631,3.02631,0,0,1-1.76465.46192A4.34022,4.34022,0,0,1,113.75972,193.55767Z"/><path class="cls-2" d="M122.05074,193.67193l.708-8.832h.97168l-.708,8.832Z"/><path class="cls-2" d="M130.70308,187.6358l-.48047,6.03613h-.94726l.084-.97168a1.95441,1.95441,0,0,1-.82812.7793,2.70121,2.70121,0,0,1-2.52637-.07715,2.347,2.347,0,0,1-.90039-1.01465,3.52969,3.52969,0,0,1-.31738-1.54785,4.09881,4.09881,0,0,1,.35351-1.75195,2.77694,2.77694,0,0,1,.9961-1.17578,2.64286,2.64286,0,0,1,1.48242-.41992,2.40736,2.40736,0,0,1,1.2539.31738,1.97373,1.97373,0,0,1,.79786.89453l.084-1.06836Zm-1.69238,4.6377a3.04617,3.04617,0,0,0,.5166-1.86524,2.33284,2.33284,0,0,0-.46875-1.57226,1.88827,1.88827,0,0,0-2.77148.13769,3.03925,3.03925,0,0,0-.5166,1.87793,2.30855,2.30855,0,0,0,.48046,1.55469,1.6914,1.6914,0,0,0,1.35645.55761A1.65665,1.65665,0,0,0,129.0107,192.2735Z"/><path class="cls-2" d="M143.75875,188.00787a2.14153,2.14153,0,0,1,.48047,1.51172c0,.168-.00489.29687-.0127.38476l-.28711,3.76758h-.96094l.28809-3.71972a3.2263,3.2263,0,0,0,.01269-.32422,1.44852,1.44852,0,0,0-.29394-.9961,1.1499,1.1499,0,0,0-.89453-.32422,1.57774,1.57774,0,0,0-1.22363.49805,2.2752,2.2752,0,0,0-.51661,1.43457l-.27539,3.43164h-.96l.28809-3.71972c.00781-.07227.01172-.18067.01172-.32422a1.44358,1.44358,0,0,0-.29395-.9961,1.1499,1.1499,0,0,0-.89453-.32422,1.55937,1.55937,0,0,0-1.21777.49805,2.352,2.352,0,0,0-.52149,1.43457l-.27636,3.43164h-.97168l.34765-4.34375q.04835-.48047.04785-1.12793c0-.248-.0039-.43652-.01172-.56445h.91211l.02344.97168a2.03546,2.03546,0,0,1,1.93262-1.11523,1.6512,1.6512,0,0,1,1.78808,1.13964,2.21065,2.21065,0,0,1,.84571-.83984,2.439,2.439,0,0,1,1.21777-.2998A1.84193,1.84193,0,0,1,143.75875,188.00787Z"/><path class="cls-2" d="M151.583,187.6358l-.48047,6.03613h-.94727l.084-.97168a1.95443,1.95443,0,0,1-.82813.7793,2.70121,2.70121,0,0,1-2.52637-.07715,2.34711,2.34711,0,0,1-.90039-1.01465,3.52969,3.52969,0,0,1-.31738-1.54785,4.09866,4.09866,0,0,1,.35352-1.75195,2.77692,2.77692,0,0,1,.99609-1.17578,2.64286,2.64286,0,0,1,1.48242-.41992,2.40742,2.40742,0,0,1,1.25391.31738,1.97371,1.97371,0,0,1,.79785.89453l.084-1.06836Zm-1.69239,4.6377a3.04617,3.04617,0,0,0,.5166-1.86524,2.33284,2.33284,0,0,0-.46875-1.57226,1.88827,1.88827,0,0,0-2.77148.13769,3.03925,3.03925,0,0,0-.5166,1.87793,2.3085,2.3085,0,0,0,.48047,1.55469,1.69137,1.69137,0,0,0,1.35644.55761A1.65665,1.65665,0,0,0,149.89058,192.2735Z"/><path class="cls-2" d="M151.83394,195.48346q1.00782,0,1.10449-1.21192l.54-6.63574h.96l-.54,6.75586a2.18713,2.18713,0,0,1-.58887,1.43457,1.83882,1.83882,0,0,1-1.33106.48535,3.02167,3.02167,0,0,1-.792-.10742l.07129-.81641A2.03909,2.03909,0,0,0,151.83394,195.48346Zm1.72852-10.40332H154.75l-.084,1.10351h-1.20019Z"/><path class="cls-2" d="M157.03609,193.39557a2.436,2.436,0,0,1-.97168-1.01954,3.30073,3.30073,0,0,1-.3418-1.53613,4.00125,4.00125,0,0,1,.36622-1.76367,2.75968,2.75968,0,0,1,1.02539-1.16992,2.82788,2.82788,0,0,1,1.53613-.41406,2.91883,2.91883,0,0,1,1.46973.35937,2.43822,2.43822,0,0,1,.97265,1.02637,3.3367,3.3367,0,0,1,.3418,1.542,4.00136,4.00136,0,0,1-.36621,1.76367,2.72717,2.72717,0,0,1-1.02539,1.16406,2.85873,2.85873,0,0,1-1.53614.40821A2.9104,2.9104,0,0,1,157.03609,193.39557Zm2.91016-1.12793a3.15041,3.15041,0,0,0,.5039-1.88379,2.28263,2.28263,0,0,0-.47363-1.542,1.84491,1.84491,0,0,0-2.75391.1504,3.09733,3.09733,0,0,0-.5166,1.88378,2.2869,2.2869,0,0,0,.46875,1.55372,1.70372,1.70372,0,0,0,1.35547.53417A1.64481,1.64481,0,0,0,159.94625,192.26764Z"/><path class="cls-2" d="M166.53414,187.56353l-.084.876a2.13368,2.13368,0,0,0-.624-.0957,1.67749,1.67749,0,0,0-1.34473.5459,2.20476,2.20476,0,0,0-.51562,1.33789l-.28809,3.44433H162.706l.34766-4.34375q.04834-.81591.04785-1.22461c0-.208-.00391-.36328-.01172-.46777h.91211l.01172.97168a2.03614,2.03614,0,0,1,.82227-.82129,2.35828,2.35828,0,0,1,1.1582-.29394A1.80962,1.80962,0,0,1,166.53414,187.56353Z"/><path class="cls-2" d="M167.06246,193.67193l.48047-6.03613h.97168l-.48047,6.03613Zm.56445-8.59179h1.1875l-.084,1.10351h-1.2002Z"/><path class="cls-2" d="M171.35836,191.70416l-.0127.2041a.86187.86187,0,0,0,.97266,1.01953,1.81694,1.81694,0,0,0,.63574-.10742l-.06055.81543a2.60734,2.60734,0,0,1-.82715.12012,1.72846,1.72846,0,0,1-1.248-.42578,1.65611,1.65611,0,0,1-.44434-1.25391,1.853,1.853,0,0,1,.01172-.24023l.26465-3.43165h-1.17676l.06055-.76855h1.17578L170.83,186.088l.99609-.34766-.14453,1.89551h1.72851l-.07226.76855H171.622Z"/><path class="cls-2" d="M174.958,190.62408v.24024a2.24649,2.24649,0,0,0,.49218,1.54785,1.81181,1.81181,0,0,0,1.42774.55175,3.035,3.035,0,0,0,1.98047-.69628l.28808.708a2.71287,2.71287,0,0,1-1.02051.57032,4.07957,4.07957,0,0,1-1.28418.21,3.04978,3.04978,0,0,1-1.51757-.36035,2.455,2.455,0,0,1-.99024-1.01954,3.2431,3.2431,0,0,1-.34765-1.53613,3.98252,3.98252,0,0,1,.36621-1.74609,2.7667,2.7667,0,0,1,1.03808-1.18164,2.87637,2.87637,0,0,1,1.55957-.41992,2.47749,2.47749,0,0,1,1.82422.666,2.57885,2.57885,0,0,1,.67188,1.91406,4.379,4.379,0,0,1-.03614.55176Zm.74414-1.93848a2.27848,2.27848,0,0,0-.67188,1.30274h3.56348a1.7905,1.7905,0,0,0-.41406-1.29688,1.537,1.537,0,0,0-1.18165-.45507A1.87222,1.87222,0,0,0,175.70211,188.6856Zm1.76367-1.83007h-.67188l1.36817-2.44727h1.16406Z"/><path class="cls-2" d="M184.61715,190.62408v.24024a2.24649,2.24649,0,0,0,.49218,1.54785,1.81181,1.81181,0,0,0,1.42774.55175,3.035,3.035,0,0,0,1.98047-.69628l.28808.708a2.71287,2.71287,0,0,1-1.02051.57032,4.07957,4.07957,0,0,1-1.28418.21,3.04978,3.04978,0,0,1-1.51757-.36035,2.455,2.455,0,0,1-.99024-1.01954,3.2431,3.2431,0,0,1-.34765-1.53613,3.98252,3.98252,0,0,1,.36621-1.74609,2.7667,2.7667,0,0,1,1.03808-1.18164,2.87637,2.87637,0,0,1,1.55957-.41992,2.47749,2.47749,0,0,1,1.82422.666,2.57885,2.57885,0,0,1,.67188,1.91406,4.379,4.379,0,0,1-.03614.55176Zm.74414-1.93848a2.27848,2.27848,0,0,0-.67188,1.30274h3.56348a1.79055,1.79055,0,0,0-.41406-1.29688,1.537,1.537,0,0,0-1.18165-.45507A1.87222,1.87222,0,0,0,185.36129,188.6856Z"/><path class="cls-2" d="M191.70992,191.70416l-.0127.2041a.86188.86188,0,0,0,.97266,1.01953,1.8169,1.8169,0,0,0,.63574-.10742l-.06054.81543a2.60738,2.60738,0,0,1-.82715.12012,1.72847,1.72847,0,0,1-1.24805-.42578,1.65611,1.65611,0,0,1-.44434-1.25391,1.853,1.853,0,0,1,.01172-.24023l.26465-3.43165h-1.17676l.06055-.76855h1.17578l.12012-1.54785.99609-.34766-.14453,1.89551h1.72852l-.07227.76855h-1.71582Z"/><path class="cls-2" d="M197.5898,193.67193l.708-8.832h.97168l-.708,8.832Z"/><path class="cls-2" d="M202.19722,185.128l-.07226.876a2.51634,2.51634,0,0,1-.24024.92383,2.89186,2.89186,0,0,1-.63574.82813l-.41992-.36035a2.51251,2.51251,0,0,0,.42578-.53321,1.659,1.659,0,0,0,.18652-.498h-.57617l.084-1.23633Z"/><path class="cls-2" d="M208.55758,187.6358l-.48047,6.03613h-.94727l.084-.97168a1.95443,1.95443,0,0,1-.82813.7793,2.70121,2.70121,0,0,1-2.52637-.07715,2.34711,2.34711,0,0,1-.90039-1.01465,3.52969,3.52969,0,0,1-.31738-1.54785,4.09866,4.09866,0,0,1,.35352-1.75195,2.77685,2.77685,0,0,1,.99609-1.17578,2.64286,2.64286,0,0,1,1.48242-.41992,2.40742,2.40742,0,0,1,1.25391.31738,1.97371,1.97371,0,0,1,.79785.89453l.084-1.06836Zm-1.69239,4.6377a3.04617,3.04617,0,0,0,.5166-1.86524,2.33284,2.33284,0,0,0-.46875-1.57226,1.88827,1.88827,0,0,0-2.77148.13769,3.03925,3.03925,0,0,0-.5166,1.87793,2.3085,2.3085,0,0,0,.48047,1.55469,1.69137,1.69137,0,0,0,1.35644.55761A1.65665,1.65665,0,0,0,206.86519,192.2735Z"/><path class="cls-2" d="M215.49312,187.6358l-.46777,6.03613h-.94824l.07226-.98437a2.01534,2.01534,0,0,1-.82812.792,2.492,2.492,0,0,1-1.17578.27637,1.839,1.839,0,0,1-2.04-2.05176q0-.22851.01172-.34863l.28808-3.71973h.97266l-.30078,3.66016a1.97572,1.97572,0,0,0-.01172.25195q0,1.40332,1.32031,1.4043a1.74432,1.74432,0,0,0,1.30762-.50391,2.1881,2.1881,0,0,0,.56445-1.4043l.27539-3.4082Z"/><path class="cls-2" d="M218.33785,191.70416l-.0127.2041a.86188.86188,0,0,0,.97266,1.01953,1.81694,1.81694,0,0,0,.63574-.10742l-.06055.81543a2.60727,2.60727,0,0,1-.82714.12012,1.72847,1.72847,0,0,1-1.24805-.42578,1.65611,1.65611,0,0,1-.44434-1.25391,1.853,1.853,0,0,1,.01172-.24023l.26465-3.43165h-1.17676l.06055-.76855h1.17578l.12012-1.54785.99609-.34766-.14453,1.89551h1.72852l-.07227.76855h-1.71582Z"/><path class="cls-2" d="M222.27828,193.39557a2.4359,2.4359,0,0,1-.97168-1.01954,3.30073,3.30073,0,0,1-.3418-1.53613,4.00139,4.00139,0,0,1,.36621-1.76367,2.75981,2.75981,0,0,1,1.02539-1.16992,2.82791,2.82791,0,0,1,1.53614-.41406,2.91877,2.91877,0,0,1,1.46972.35937,2.43831,2.43831,0,0,1,.97266,1.02637,3.3367,3.3367,0,0,1,.3418,1.542,4.00122,4.00122,0,0,1-.36622,1.76367,2.72711,2.72711,0,0,1-1.02539,1.16406,2.8587,2.8587,0,0,1-1.53613.40821A2.91037,2.91037,0,0,1,222.27828,193.39557Zm2.91015-1.12793a3.15034,3.15034,0,0,0,.50391-1.88379,2.28263,2.28263,0,0,0-.47363-1.542,1.84491,1.84491,0,0,0-2.75391.1504,3.09733,3.09733,0,0,0-.5166,1.88378,2.2869,2.2869,0,0,0,.46875,1.55372,1.7037,1.7037,0,0,0,1.35547.53417A1.64478,1.64478,0,0,0,225.18843,192.26764Z"/><path class="cls-2" d="M232.89937,188.02545a2.10984,2.10984,0,0,1,.53321,1.55469c0,.14355-.00391.25195-.01172.32421l-.29981,3.76758h-.96l.29981-3.708a1.978,1.978,0,0,0,.01171-.25195q0-1.40478-1.34375-1.4043a1.83448,1.83448,0,0,0-1.35644.50391,2.15439,2.15439,0,0,0-.5752,1.4043l-.27636,3.45605h-.97168l.34765-4.34375q.04834-.49218.04785-1.12793c0-.248-.0039-.43652-.01171-.56445h.91211l.02343.99609a2.0541,2.0541,0,0,1,.84668-.8457,2.56989,2.56989,0,0,1,1.24121-.29394A2.09132,2.09132,0,0,1,232.89937,188.02545Z"/><path class="cls-2" d="M236.16207,193.39557a2.4359,2.4359,0,0,1-.97168-1.01954,3.30073,3.30073,0,0,1-.3418-1.53613,4.00139,4.00139,0,0,1,.36621-1.76367,2.75981,2.75981,0,0,1,1.02539-1.16992,2.82791,2.82791,0,0,1,1.53614-.41406,2.91877,2.91877,0,0,1,1.46972.35937,2.43831,2.43831,0,0,1,.97266,1.02637,3.33669,3.33669,0,0,1,.34179,1.542,4.00136,4.00136,0,0,1-.36621,1.76367,2.72711,2.72711,0,0,1-1.02539,1.16406,2.85872,2.85872,0,0,1-1.53613.40821A2.91037,2.91037,0,0,1,236.16207,193.39557Zm2.91015-1.12793a3.15034,3.15034,0,0,0,.50391-1.88379,2.28263,2.28263,0,0,0-.47363-1.542,1.84491,1.84491,0,0,0-2.75391.1504,3.09733,3.09733,0,0,0-.5166,1.88378,2.2869,2.2869,0,0,0,.46875,1.55372,1.7037,1.7037,0,0,0,1.35547.53417A1.64478,1.64478,0,0,0,239.07222,192.26764Z"/><path class="cls-2" d="M250.3525,188.00787a2.14153,2.14153,0,0,1,.48047,1.51172c0,.168-.00489.29687-.0127.38476l-.28711,3.76758h-.96094l.28809-3.71972a3.2263,3.2263,0,0,0,.01269-.32422,1.44852,1.44852,0,0,0-.29394-.9961,1.1499,1.1499,0,0,0-.89453-.32422,1.57774,1.57774,0,0,0-1.22363.49805,2.2752,2.2752,0,0,0-.51661,1.43457l-.27539,3.43164h-.96l.28809-3.71972c.00781-.07227.01172-.18067.01172-.32422a1.44358,1.44358,0,0,0-.29395-.9961,1.1499,1.1499,0,0,0-.89453-.32422,1.55937,1.55937,0,0,0-1.21777.49805,2.352,2.352,0,0,0-.52149,1.43457l-.27636,3.43164H241.833l.34765-4.34375q.04835-.48047.04785-1.12793c0-.248-.0039-.43652-.01172-.56445h.91211l.02344.97168a2.03546,2.03546,0,0,1,1.93262-1.11523,1.6512,1.6512,0,0,1,1.78808,1.13964,2.21065,2.21065,0,0,1,.84571-.83984,2.439,2.439,0,0,1,1.21777-.2998A1.84193,1.84193,0,0,1,250.3525,188.00787Z"/><path class="cls-2" d="M252.39254,193.67193l.48046-6.03613h.97168l-.48046,6.03613Zm.56445-8.59179h1.1875l-.084,1.10351h-1.20019Z"/><path class="cls-2" d="M256.08883,190.62408v.24024a2.24649,2.24649,0,0,0,.49218,1.54785,1.81181,1.81181,0,0,0,1.42774.55175,3.035,3.035,0,0,0,1.98047-.69628l.28808.708a2.71287,2.71287,0,0,1-1.02051.57032,4.07957,4.07957,0,0,1-1.28418.21,3.04978,3.04978,0,0,1-1.51757-.36035,2.455,2.455,0,0,1-.99024-1.01954,3.2431,3.2431,0,0,1-.34765-1.53613,3.98252,3.98252,0,0,1,.36621-1.74609,2.7667,2.7667,0,0,1,1.03808-1.18164,2.87637,2.87637,0,0,1,1.55957-.41992,2.47749,2.47749,0,0,1,1.82422.666,2.57885,2.57885,0,0,1,.67188,1.91406,4.379,4.379,0,0,1-.03614.55176Zm.74414-1.93848a2.27848,2.27848,0,0,0-.67188,1.30274h3.56348a1.7905,1.7905,0,0,0-.41407-1.29688,1.537,1.537,0,0,0-1.18164-.45507A1.87222,1.87222,0,0,0,256.833,188.6856Z"/></g></g><path class="cls-2" d="M45.82641,106.02877l56.7672,2.1856-1.95046-3.39895a110.96471,110.96471,0,0,1-38.70223,46.4845,110.66036,110.66036,0,0,1-15.1299,8.64844c-2.08951.986-.98431,4.21748,1.14009,4.20932q18.52863-.07118,37.05734-.14254c7.75441-.03939,15.81285-.2193,23.33928-2.26158a25.153,25.153,0,0,0,5.071-1.9198,12.98917,12.98917,0,0,0,1.92659-1.24542c1.35047-1.043,1.45272-2.03326,1.14357-3.6754a57.90428,57.90428,0,0,1-1.2992-13.72391c.3873-7.29563,4.49969-15.2815,11.30128-18.58127a15.07487,15.07487,0,0,1,13.69241.284,15.68446,15.68446,0,0,1,7.90972,11.41108l2.25886-2.25886a231.47432,231.47432,0,0,1-29.82916.27929,2.29306,2.29306,0,0,0-2.17817,1.65837c-2.27843,7.22568-4.55158,16.00368.16394,22.79608,4.16286,5.99634,11.76,8.50054,18.8191,7.61429,7.57066-.95049,14.48139-4.9207,20.32815-9.66131a57.80786,57.80786,0,0,0,12.77694-14.73677,60.15779,60.15779,0,0,0,8.63715-37.95882c-.38534-3.2448-.76714-6.92328-2.33845-9.84126-1.53345-2.84769-4.94613-5.61373-8.17767-3.51087-1.71532,1.11622-2.23585,3.09369-2.624,4.97788a65.20471,65.20471,0,0,0-1.00145,6.8289,126.82329,126.82329,0,0,0-.4477,13.35872,210.2514,210.2514,0,0,0,1.95148,26.63246c.94746,6.95106,1.62948,15.41156,6.84489,20.6881,5.17766,5.23834,13.48438,4.70948,19.25437.74363,6.29533-4.32694,9.20812-11.78576,11.21885-18.85624a138.9375,138.9375,0,0,0,4.73223-25.92423q.55968-6.42211.51024-12.87811-.02616-3.34248-.21742-6.681a24.148,24.148,0,0,0-.65377-5.18868,8.29365,8.29365,0,0,0-2.3626-4.07861c-1.45117-1.25744-3.65922-1.92221-5.14012-.39591-2.51452,2.5916-3.63951,6.2838-4.1424,9.77143-.59359,4.11668-.7005,8.31027-.8789,12.46075q-.29337,6.82529-.36205,13.65778c-.08394,8.34384-.26262,16.85675,1.0807,25.11924a39.82947,39.82947,0,0,0,3.42171,11.12021c1.56946,3.21512,3.954,6.92539,7.77455,7.57231,3.73413.63228,7.46-1.756,9.90445-4.39541a25.117,25.117,0,0,0,4.95157-8.59284,63.805,63.805,0,0,0,2.572-10.345q1.22914-6.64609,1.99882-13.367.758-6.535,1.06423-13.11017l-4.437.60049a52.89076,52.89076,0,0,1,4.01372,16.53181c.33374,4.69617-.10813,9.40507.1786,14.10267.27211,4.458,1.191,8.93949,4.02971,12.50849a15.72441,15.72441,0,0,0,12.05648,5.56687c5.40837.1748,10.758-1.4798,15.858-3.08641,2.76335-.87053,1.58317-5.23343-1.201-4.35635-6.97993,2.19885-17.769,5.98108-23.30677-1.05339-2.30851-2.93245-2.81305-6.88475-2.96581-10.49455-.186-4.39483.18213-8.79587-.1315-13.18733a56.608,56.608,0,0,0-4.17511-17.7328c-.94431-2.26892-4.30742-2.10566-4.437.6005a186.94211,186.94211,0,0,1-3.44256,28.08256c-1.22782,6.0769-3.24484,14.18311-9.57135,16.9199-3.78077,1.63552-5.92176-3.00072-7.1885-5.80032a38.759,38.759,0,0,1-2.93-11.62422c-1.00583-9.008-.71891-18.24753-.50346-27.29212.12827-5.385.33459-10.77484.70108-16.14935.26322-3.86018.73483-8.1729,3.52317-11.10779l-1.59725.66161c.925.11648,1.434,2.476,1.56945,3.36263a57.45551,57.45551,0,0,1,.39459,7.25147,135.89914,135.89914,0,0,1-.608,16.45312,131.37932,131.37932,0,0,1-2.61257,16.12505,78.36241,78.36241,0,0,1-4.25889,14.27993c-1.744,3.96758-4.23653,7.781-8.11883,9.91486-3.31464,1.8219-7.57285,2.40849-10.897.30433-3.32581-2.10521-4.66147-6.26444-5.48875-9.8943A133.24686,133.24686,0,0,1,170.11139,133.58c-1.149-10.97705-1.75293-22.3268-.641-33.33145.134-1.32651.31135-2.6459.54313-3.959a13.00162,13.00162,0,0,1,.83319-3.5845c.178-.34459.056-.35877.41192-.12994A4.97766,4.97766,0,0,1,172.8305,94.474a18.33809,18.33809,0,0,1,1.42064,5.52253,47.96462,47.96462,0,0,1,.61833,5.93224,56.38693,56.38693,0,0,1-17.726,43.27939c-6.31405,5.856-15.04666,11.40225-23.98726,10.82332a14.76642,14.76642,0,0,1-10.33951-5.00176c-2.92991-3.54675-2.90978-8.42544-2.05312-12.7129a68.3362,68.3362,0,0,1,1.93737-7.13422l-2.17818,1.65836a231.47435,231.47435,0,0,0,29.82916-.27929c1.10083-.08143,2.41774-.97507,2.25886-2.25886a20.4388,20.4388,0,0,0-8.068-13.9474,19.28832,19.28832,0,0,0-15.6832-3.28044c-9.93869,2.11841-16.70387,12.03427-17.96107,21.69458-.79014,6.07139.25366,12.26853,1.40265,18.22564l.58092-2.19775a2.29926,2.29926,0,0,1-.32924.28241c.28326-.15594-.03031.01652-.08057.0515-.29121.20269-.59209.38986-.90029.56548a14.26913,14.26913,0,0,1-1.68578.813,31.43039,31.43039,0,0,1-4.99842,1.42653,73.965,73.965,0,0,1-11.03325,1.31592c-8.82787.50138-17.70841.27939-26.5457.31333L47.95111,159.64l1.1401,4.20933a115.24791,115.24791,0,0,0,46.95137-41.09956,110.68167,110.68167,0,0,0,8.50149-15.65412,2.29257,2.29257,0,0,0-1.95046-3.39895l-56.7672-2.1856c-2.90746-.11194-2.90262,4.406,0,4.51772Z"/><path class="cls-2" d="M228.38,91.43081c-2.6778,2.09492-5.50415,4.602-6.37493,8.03449a8.70258,8.70258,0,0,0,12.92518,9.35532,9.86719,9.86719,0,0,0,4.412-8.322,8.53285,8.53285,0,0,0-.44805-2.64369,2.99988,2.99988,0,0,0-3.77177-2.0458,9.1736,9.1736,0,0,0-5.111,3.89365,2.27537,2.27537,0,0,0,.81037,3.09055,2.31109,2.31109,0,0,0,3.09055-.81037c-.00553.00839.33659-.46816.206-.30555-.14519.18073.217-.23458.251-.27013.12618-.13211.25818-.25839.39446-.38.053-.04734.42917-.32688.14179-.12548a7.20192,7.20192,0,0,1,.84236-.5112c.11845-.06084.45519-.1955.16054-.08413l.20628-.07394q.56091-.14593-.30107-.0629l-.99676-.58091c-.505-.4677-.299-.727-.218-.35216.02633.12195.07425.24476.105.36532.02346.09191.04147.185.06341.27715.01721.0723.077.47114.03711.16628-.033-.25169.01746.32991.02011.45331.00543.25328-.01.50419-.0245.7567-.02481.4314-.00543.051.01042-.03574-.02282.12482-.044.24917-.07073.37337-.04675.217-.10373.43171-.16886.64392-.06515.21226-.1384.42238-.22238.628.177-.43325-.10895.18863-.18093.31881-.1231.22262-.26584.42914-.39918.64511-.01841.0298-.20658.28423-.04772.07591.171-.22423-.07589.08821-.1207.13766-.14758.16289-.29529.32417-.45464.47575-.09091.08647-.18655.16613-.27858.251-.2968.27389.155-.05167-.06159.04615-.19271.087-.36825.24277-.55527.34584-.10894.06-.22586.10915-.33335.17079.03168-.01817.35029-.1144.1072-.04383-.21239.06167-.41655.14676-.63173.20171-.12573.03211-.25135.05482-.37767.08276.31037-.06865.17142-.00966-.066-.0011-.22318.008-.445.0147-.66842.00275-.12695-.00678-.25447-.01748-.38061-.03251.05465.00652.35187.09544.12828.0064-.199-.07925-.44273-.098-.65113-.1611-.12316-.03729-.24238-.08261-.36465-.12185-.39284-.12606.12318.10183-.08143-.03474-.18339-.1224-.40424-.205-.59513-.3196-.08584-.05153-.71044-.4911-.33515-.19722a7.28469,7.28469,0,0,1-1.027-1.00707c-.219-.25531.18455.28616.00744.00156-.0501-.08049-.10717-.1571-.15769-.23749-.13548-.21559-.24213-.44094-.36311-.66405.19961.36811-.02216-.07888-.07431-.25325-.02705-.09045-.05249-.18145-.07477-.27322-.00231-.00953-.10122-.57954-.06114-.25941.03383.27019-.00932-.36154-.0079-.46513.002-.1463.01238-.29068.02175-.43642-.00607.09435-.08456.41176.00607-.03785.049-.24319.106-.483.17864-.72043.04131-.135.08783-.26785.136-.4005.12724-.3502-.23387.44182.06507-.14228a10.87481,10.87481,0,0,1,.90069-1.47015c-.20163.27595.01707-.02123.05354-.06421.12012-.14161.23925-.28376.36285-.42242q.29945-.336.61742-.65461a31.66593,31.66593,0,0,1,2.99081-2.58131,2.27127,2.27127,0,0,0,0-3.19451,2.316,2.316,0,0,0-3.19451,0Z"/></g></svg>