<svg xmlns="http://www.w3.org/2000/svg" xmlns:xlink="http://www.w3.org/1999/xlink" width="187.574" height="69.544" viewBox="0 0 187.574 69.544"><defs><clipPath id="a"><rect width="187.574" height="69.544" fill="none"/></clipPath></defs><g clip-path="url(#a)"><path d="M1.878,16.377l48.928,1.884-1.681-2.93A95.645,95.645,0,0,1,15.768,55.4,95.513,95.513,0,0,1,2.727,62.851c-1.8.85-.849,3.635.983,3.628l31.94-.123c6.683-.034,13.629-.189,20.116-1.949a21.691,21.691,0,0,0,4.371-1.655A11.217,11.217,0,0,0,61.8,61.679c1.164-.9,1.252-1.753.985-3.168a49.9,49.9,0,0,1-1.12-11.829C62,40.394,65.541,33.511,71.4,30.666a12.992,12.992,0,0,1,11.8.245,13.52,13.52,0,0,1,6.818,9.835L91.969,38.8a199.476,199.476,0,0,1-25.711.241,1.976,1.976,0,0,0-1.877,1.429c-1.963,6.228-3.923,13.794.141,19.648,3.588,5.168,10.136,7.326,16.22,6.563,6.525-.819,12.482-4.241,17.521-8.327a49.806,49.806,0,0,0,11.013-12.7,51.846,51.846,0,0,0,7.444-32.717c-.332-2.8-.661-5.967-2.015-8.482C113.384,2,110.443-.386,107.657,1.426c-1.478.962-1.926,2.667-2.262,4.291a56.255,56.255,0,0,0-.863,5.887,109.435,109.435,0,0,0-.386,11.513,181.309,181.309,0,0,0,1.682,22.954c.816,5.991,1.4,13.284,5.9,17.831,4.462,4.516,11.622,4.06,16.6.641,5.426-3.729,7.936-10.158,9.67-16.252a119.738,119.738,0,0,0,4.079-22.345q.482-5.535.44-11.1-.022-2.88-.187-5.758a20.847,20.847,0,0,0-.564-4.472A7.152,7.152,0,0,0,139.725,1.1C138.473.018,136.57-.555,135.294.76c-2.167,2.234-3.136,5.416-3.57,8.423a107.484,107.484,0,0,0-.758,10.739q-.252,5.882-.312,11.772c-.072,7.192-.227,14.529.932,21.65a34.351,34.351,0,0,0,2.949,9.585c1.353,2.771,3.408,5.969,6.7,6.526,3.218.545,6.43-1.514,8.536-3.789a21.636,21.636,0,0,0,4.268-7.405,55.014,55.014,0,0,0,2.217-8.916q1.059-5.729,1.723-11.521.653-5.633.917-11.3l-3.824.518a45.591,45.591,0,0,1,3.46,14.249c.288,4.047-.093,8.106.153,12.155.235,3.842,1.027,7.705,3.473,10.782a13.555,13.555,0,0,0,10.392,4.8c4.661.151,9.272-1.276,13.668-2.661,2.381-.75,1.364-4.51-1.035-3.754-6.016,1.9-15.315,5.155-20.088-.908-1.99-2.528-2.425-5.934-2.556-9.046-.16-3.788.157-7.581-.113-11.366a48.809,48.809,0,0,0-3.6-15.284c-.814-1.956-3.712-1.815-3.824.517a161.1,161.1,0,0,1-2.967,24.2c-1.058,5.238-2.8,12.224-8.249,14.583-3.259,1.409-5.1-2.587-6.2-5a33.4,33.4,0,0,1-2.525-10.02c-.867-7.764-.62-15.727-.434-23.523.11-4.641.288-9.287.6-13.919.227-3.327.633-7.044,3.036-9.574l-1.376.571c.8.1,1.236,2.133,1.352,2.9a49.674,49.674,0,0,1,.34,6.251,117.146,117.146,0,0,1-.524,14.181,113.243,113.243,0,0,1-2.252,13.9,67.569,67.569,0,0,1-3.671,12.308c-1.5,3.419-3.651,6.706-7,8.546-2.856,1.57-6.527,2.075-9.392.262s-4.017-5.4-4.73-8.528A114.809,114.809,0,0,1,109,40.123a141.579,141.579,0,0,1-.552-28.728c.116-1.143.268-2.28.468-3.412a11.213,11.213,0,0,1,.718-3.09c.153-.3.048-.309.355-.111a4.281,4.281,0,0,1,1.355,1.636,15.807,15.807,0,0,1,1.225,4.76,41.351,41.351,0,0,1,.533,5.113,48.6,48.6,0,0,1-15.278,37.3c-5.442,5.047-12.969,9.828-20.674,9.329a12.732,12.732,0,0,1-8.912-4.311c-2.525-3.057-2.507-7.262-1.769-10.957a58.986,58.986,0,0,1,1.67-6.149l-1.878,1.429a199.474,199.474,0,0,0,25.711-.24c.948-.071,2.083-.84,1.946-1.947a17.614,17.614,0,0,0-6.954-12.021A16.624,16.624,0,0,0,73.444,25.9c-8.566,1.826-14.4,10.372-15.481,18.7-.681,5.233.219,10.574,1.209,15.708l.5-1.894a1.961,1.961,0,0,1-.284.243c.245-.134-.026.015-.069.045-.251.174-.51.335-.776.487a12.31,12.31,0,0,1-1.453.7,27.093,27.093,0,0,1-4.309,1.23,63.762,63.762,0,0,1-9.509,1.133c-7.609.433-15.263.241-22.88.271L3.71,62.584l.983,3.629A99.33,99.33,0,0,0,45.159,30.789,95.406,95.406,0,0,0,52.487,17.3a1.974,1.974,0,0,0-1.682-2.929L1.878,12.483C-.627,12.386-.624,16.28,1.878,16.377Z" transform="translate(0 0)" fill="#fff"/><path d="M183.824,4.315c-2.308,1.806-4.744,3.967-5.495,6.925a7.5,7.5,0,0,0,11.14,8.063,8.505,8.505,0,0,0,3.8-7.173,7.349,7.349,0,0,0-.386-2.279,2.586,2.586,0,0,0-3.194-1.78l-.057.017a7.909,7.909,0,0,0-4.405,3.355,1.963,1.963,0,0,0,.7,2.665,1.991,1.991,0,0,0,2.663-.7c0,.009.29-.4.178-.263s.187-.2.216-.233c.109-.115.223-.223.34-.328.046-.041.37-.28.122-.108a6.2,6.2,0,0,1,.726-.44c.1-.053.392-.17.138-.072l.178-.065q.484-.127-.259-.053l-.859-.5c-.435-.4-.258-.627-.188-.3.022.1.064.21.091.315.02.078.035.159.054.239.016.062.066.406.032.144-.028-.217.016.283.018.39,0,.219-.009.435-.022.653-.022.371,0,.044.009-.032-.019.108-.038.215-.06.321-.041.188-.09.372-.146.555s-.119.365-.191.542c.153-.373-.094.162-.156.275-.106.191-.229.37-.345.555-.016.026-.178.245-.04.066s-.066.076-.1.119c-.128.14-.254.279-.392.409-.078.075-.16.143-.24.216-.256.236.134-.044-.053.04-.166.075-.317.209-.478.3-.094.052-.195.094-.287.147.027-.016.3-.1.092-.038-.184.053-.359.127-.545.174-.109.028-.216.047-.326.072.268-.059.148-.009-.057,0s-.384.012-.576,0c-.109-.005-.22-.015-.328-.028.047.005.3.082.111.005-.172-.068-.382-.084-.561-.139-.107-.032-.209-.071-.315-.105-.339-.109.106.088-.071-.029-.158-.106-.348-.177-.513-.276-.074-.045-.612-.423-.289-.17a6.288,6.288,0,0,1-.885-.868c-.189-.22.159.247.007,0-.043-.068-.093-.135-.136-.2-.117-.185-.209-.379-.313-.571.172.316-.019-.068-.065-.22-.023-.077-.045-.156-.064-.234,0-.009-.088-.5-.053-.224.028.233-.009-.311-.007-.4,0-.126.01-.251.018-.377-.005.083-.072.356.005-.033.042-.209.091-.416.154-.621.035-.115.076-.231.117-.344.109-.3-.2.379.056-.124a9.393,9.393,0,0,1,.777-1.267c-.174.238.015-.018.046-.054.1-.122.207-.246.313-.365.172-.193.35-.38.533-.564a27.161,27.161,0,0,1,2.578-2.224,1.96,1.96,0,0,0,0-2.755A2,2,0,0,0,183.824,4.315Z" transform="translate(-24.603 -0.52)" fill="#fff"/></g></svg>